<svg width="203" height="57" viewBox="0 0 203 57" fill="none" xmlns="http://www.w3.org/2000/svg">
<rect width="203" height="57" rx="28.5" fill="url(#paint0_linear_132_1071)"/>
<g filter="url(#filter0_d_132_1071)">
<path d="M32.9386 12.9091H40.5238L48.5352 32.4545H48.8761L56.8874 12.9091H64.4727V42H58.5067V23.0653H58.2653L50.7369 41.858H46.6744L39.146 22.9943H38.9045V42H32.9386V12.9091ZM96.2731 27.4545C96.2731 30.6269 95.6718 33.3258 94.4691 35.5511C93.2759 37.7765 91.6471 39.4763 89.5827 40.6506C87.5278 41.8153 85.2172 42.3977 82.6509 42.3977C80.0657 42.3977 77.7456 41.8106 75.6907 40.6364C73.6358 39.4621 72.0117 37.7623 70.8185 35.5369C69.6254 33.3116 69.0288 30.6174 69.0288 27.4545C69.0288 24.2822 69.6254 21.5833 70.8185 19.358C72.0117 17.1326 73.6358 15.4375 75.6907 14.2727C77.7456 13.0985 80.0657 12.5114 82.6509 12.5114C85.2172 12.5114 87.5278 13.0985 89.5827 14.2727C91.6471 15.4375 93.2759 17.1326 94.4691 19.358C95.6718 21.5833 96.2731 24.2822 96.2731 27.4545ZM90.0373 27.4545C90.0373 25.3996 89.7295 23.6667 89.114 22.2557C88.5079 20.8447 87.6509 19.7746 86.543 19.0455C85.435 18.3163 84.1377 17.9517 82.6509 17.9517C81.1642 17.9517 79.8668 18.3163 78.7589 19.0455C77.6509 19.7746 76.7892 20.8447 76.1737 22.2557C75.5676 23.6667 75.2646 25.3996 75.2646 27.4545C75.2646 29.5095 75.5676 31.2424 76.1737 32.6534C76.7892 34.0644 77.6509 35.1345 78.7589 35.8636C79.8668 36.5928 81.1642 36.9574 82.6509 36.9574C84.1377 36.9574 85.435 36.5928 86.543 35.8636C87.6509 35.1345 88.5079 34.0644 89.114 32.6534C89.7295 31.2424 90.0373 29.5095 90.0373 27.4545ZM111.142 42H100.829V12.9091H111.227C114.153 12.9091 116.672 13.4915 118.784 14.6562C120.895 15.8116 122.52 17.4735 123.656 19.642C124.802 21.8106 125.375 24.4053 125.375 27.4261C125.375 30.4564 124.802 33.0606 123.656 35.2386C122.52 37.4167 120.886 39.0881 118.755 40.2528C116.634 41.4176 114.096 42 111.142 42ZM106.98 36.7301H110.886C112.704 36.7301 114.234 36.4081 115.474 35.7642C116.724 35.1108 117.662 34.1023 118.287 32.7386C118.921 31.3655 119.238 29.5947 119.238 27.4261C119.238 25.2765 118.921 23.5199 118.287 22.1562C117.662 20.7926 116.729 19.7888 115.488 19.1449C114.248 18.5009 112.718 18.179 110.9 18.179H106.98V36.7301ZM129.931 42V12.9091H149.533V17.9801H136.081V24.9119H148.525V29.983H136.081V36.929H149.59V42H129.931ZM154.423 42V12.9091H160.574V36.929H173.045V42H154.423Z" fill="#F1F5F9"/>
</g>
<defs>
<filter id="filter0_d_132_1071" x="28.9386" y="12.5114" width="148.107" height="37.8864" filterUnits="userSpaceOnUse" color-interpolation-filters="sRGB">
<feFlood flood-opacity="0" result="BackgroundImageFix"/>
<feColorMatrix in="SourceAlpha" type="matrix" values="0 0 0 0 0 0 0 0 0 0 0 0 0 0 0 0 0 0 127 0" result="hardAlpha"/>
<feOffset dy="4"/>
<feGaussianBlur stdDeviation="2"/>
<feComposite in2="hardAlpha" operator="out"/>
<feColorMatrix type="matrix" values="0 0 0 0 0 0 0 0 0 0 0 0 0 0 0 0 0 0 0.25 0"/>
<feBlend mode="normal" in2="BackgroundImageFix" result="effect1_dropShadow_132_1071"/>
<feBlend mode="normal" in="SourceGraphic" in2="effect1_dropShadow_132_1071" result="shape"/>
</filter>
<linearGradient id="paint0_linear_132_1071" x1="0" y1="28.5" x2="203" y2="28.5" gradientUnits="userSpaceOnUse">
<stop stop-color="#CD295D"/>
<stop offset="0.375" stop-color="#D10DC4" stop-opacity="0.83"/>
<stop offset="0.675" stop-color="#CE30F6" stop-opacity="0.79"/>
<stop offset="0.96" stop-color="#EF54F2"/>
</linearGradient>
</defs>
</svg>
