<svg width="170" height="155" viewBox="0 0 170 155" fill="none" xmlns="http://www.w3.org/2000/svg">
<g clip-path="url(#clip0_132_2001)">
<path d="M58.1623 10.8566L57.1163 12.8423L58.1767 14.8208L55.9477 14.448L54.3824 16.0609L54.0506 13.8459L52.0308 12.8566L54.0434 11.8602L54.3608 9.64514L55.9405 11.2437L58.1623 10.8566Z" fill="white"/>
<path d="M78.4249 22.5341L78.8216 22.7634L79.2328 22.5699L79.139 23.0143L79.4564 23.3441L78.9947 23.3943L78.7783 23.7957L78.5908 23.3799L78.1436 23.2939L78.4826 22.9857L78.4249 22.5341Z" fill="#FFD200"/>
<path d="M130.412 9.85303L131.17 11.638L133.081 12.0322L131.603 13.3011L131.819 15.2294L130.146 14.2258L128.371 15.0215L128.811 13.129L127.505 11.6953L129.446 11.5376L130.412 9.85303Z" fill="white"/>
<path d="M152.904 32.2617L153.351 32.4696L153.777 32.2258L153.712 32.7133L154.087 33.0359L153.597 33.1291L153.402 33.5807L153.164 33.1506L152.673 33.1004L153.005 32.742L152.904 32.2617Z" fill="#FFD200"/>
<path d="M139.004 62.0108L138.657 62.5699L138.917 63.1792L138.275 63.0143L137.777 63.4588L137.734 62.7993L137.157 62.4624L137.777 62.2186L137.914 61.5735L138.347 62.0753L139.004 62.0108Z" fill="#FFD200"/>
<path d="M168.024 63.6667L168.817 64.3119L169.798 64.0252L169.423 64.9714L170 65.8101L168.983 65.7528L168.355 66.5556L168.096 65.5736L167.136 65.2295L167.995 64.6847L168.024 63.6667Z" fill="#FFD200"/>
<path d="M157.16 88.7921L156.648 89.3154L156.785 90.0394L156.121 89.7097L155.479 90.0609L155.588 89.3369L155.047 88.8351L155.775 88.7204L156.085 88.0538L156.432 88.7061L157.16 88.7921Z" fill="#FFD200"/>
<path d="M145.395 86.2688L145.604 87.2939L146.571 87.7025L145.655 88.2186L145.561 89.258L144.789 88.5555L143.757 88.7849L144.197 87.8315L143.656 86.9355L144.702 87.0573L145.395 86.2688Z" fill="#FFD200"/>
<path d="M157.283 132.67L158.855 135.538L162.13 135.882L159.865 138.255L160.55 141.459L157.578 140.054L154.729 141.688L155.155 138.441L152.709 136.255L155.948 135.652L157.283 132.67Z" fill="#FFD200"/>
<path d="M121.929 124.663L123.35 126.849L125.969 126.928L124.31 128.95L125.053 131.444L122.607 130.513L120.443 131.975L120.58 129.373L118.51 127.781L121.042 127.115L121.929 124.663Z" fill="#FFD200"/>
<path d="M94.5254 138.211L95.2179 140.692L97.6633 141.538L95.4993 142.95L95.4488 145.523L93.4218 143.925L90.9476 144.67L91.8564 142.262L90.3777 140.147L92.9601 140.262L94.5254 138.211Z" fill="#FFD200"/>
<path d="M81.4546 152.692L81.9018 152.893L82.3202 152.634L82.2697 153.115L82.6448 153.43L82.1687 153.538L81.9811 153.989L81.7359 153.566L81.2454 153.531L81.57 153.165L81.4546 152.692Z" fill="white"/>
<path d="M66.7968 152.197L66.5011 153.229L67.1863 154.054L66.1043 154.09L65.52 155L65.1522 153.989L64.1062 153.717L64.9574 153.057L64.8925 151.982L65.7869 152.584L66.7968 152.197Z" fill="white"/>
<path d="M11.8373 142.778L14.8237 142.835L16.5694 140.419L17.4422 143.265L20.2915 144.168L17.839 145.867L17.8534 148.842L15.4657 147.05L12.6308 147.982L13.6046 145.172L11.8373 142.778Z" fill="#FFD200"/>
<path d="M27.3319 109.251L26.5384 110.986L27.5266 112.613L25.6223 112.405L24.3671 113.839L23.9776 111.975L22.2175 111.229L23.8838 110.29L24.0498 108.398L25.4636 109.681L27.3319 109.251Z" fill="#FFD200"/>
<path d="M17.3845 75.3369L18.7478 77.9462L21.6765 78.3118L19.599 80.405L20.1545 83.2939L17.5143 81.9749L14.9175 83.3943L15.3647 80.4839L13.2079 78.4767L16.1293 77.9964L17.3845 75.3369Z" fill="#FFD200"/>
<path d="M6.3623 94.5986L6.77347 94.6918L7.08365 94.405L7.12693 94.8208L7.49482 95.0287L7.10529 95.1936L7.02594 95.6022L6.74461 95.2868L6.32623 95.3441L6.54264 94.9785L6.3623 94.5986Z" fill="white"/>
<path d="M0 29.3011L1.24793 28.9426L1.6591 27.724L2.38766 28.7921L3.67887 28.7993L2.88539 29.8172L3.26771 31.0502L2.04863 30.6057L0.99546 31.3512L1.03874 30.0681L0 29.3011Z" fill="#FFD200"/>
<path d="M58.155 30.1684L57.4481 31.3655L58.0396 32.62L56.6763 32.3189L55.6592 33.2652L55.5221 31.8888L54.303 31.215L55.5798 30.663L55.8467 29.301L56.77 30.3333L58.155 30.1684Z" fill="#FFD200"/>
<path d="M83.0199 65.5664C83.077 66.4794 82.8851 67.3907 82.4645 68.2044C82.0582 68.9483 81.5005 69.6002 80.827 70.1183C80.0916 70.6759 79.2804 71.1272 78.4177 71.4589C77.4941 71.8295 76.5442 72.1314 75.5756 72.3621C74.5908 72.5992 73.5939 72.7834 72.5892 72.914C71.5865 73.0359 70.6488 73.1363 69.776 73.2008C68.9031 73.2653 68.0231 73.3083 67.0925 73.3298C66.162 73.3513 65.2387 73.3298 64.3081 73.2868C63.3776 73.2438 62.4543 73.1291 61.5309 72.9857C60.6356 72.8449 59.7528 72.634 58.8908 72.3549C57.7655 63.92 56.6498 55.4875 55.5438 47.0574C56.4099 46.6984 57.2962 46.3897 58.1983 46.1327C59.1433 45.8603 60.1171 45.6309 61.0837 45.4158C62.0503 45.2008 63.0818 45.0933 64.0773 44.9929C65.0728 44.8925 66.0538 44.8567 66.9988 44.8567C68.1194 44.8588 69.2391 44.921 70.353 45.0431C71.4591 45.1673 72.554 45.3758 73.6279 45.6667C74.646 45.94 75.6362 46.3072 76.5855 46.7635C77.4651 47.1823 78.2791 47.7256 79.002 48.3764C79.681 48.9863 80.2409 49.7153 80.6539 50.5269C81.0728 51.3991 81.3015 52.3494 81.3247 53.3155C81.3586 53.9703 81.2631 54.6255 81.0434 55.2438C80.8363 55.8365 80.5126 56.3823 80.0912 56.8495C79.6486 57.3414 79.124 57.7536 78.5403 58.0682C77.8887 58.4221 77.1889 58.6804 76.4628 58.8352C77.3848 59.0296 78.2772 59.3429 79.1174 59.7671C79.8829 60.1481 80.5799 60.6518 81.1805 61.2581C81.7416 61.8284 82.196 62.4935 82.5222 63.2223C82.8371 63.9649 83.006 64.7606 83.0199 65.5664ZM68.6579 61.2653C68.2494 61.2849 67.8437 61.3425 67.446 61.4373C67.5758 63.1864 67.6408 64.061 67.7778 65.8101L68.4198 65.8818C68.6239 65.896 68.8288 65.896 69.033 65.8818C69.3626 65.8576 69.6903 65.8122 70.014 65.7456C70.361 65.67 70.6927 65.5367 70.995 65.3513C71.2855 65.1679 71.5318 64.9231 71.7164 64.6345C71.9119 64.2778 71.9877 63.8685 71.9328 63.466C71.916 63.0456 71.7756 62.6394 71.5288 62.2976C71.3066 62.0028 71.0238 61.7585 70.6993 61.5807C70.3731 61.4215 70.0217 61.3196 69.6605 61.2796C69.3268 61.253 68.9915 61.253 68.6579 61.2796V61.2653ZM71.2764 54.9786C71.2575 54.6383 71.1369 54.3113 70.9301 54.0395C70.733 53.7867 70.4879 53.5748 70.2088 53.4158C69.9341 53.2651 69.637 53.1586 69.3287 53.1004C69.0678 53.0275 68.7989 52.9865 68.528 52.9786C68.2325 52.9812 67.9387 53.0247 67.6552 53.1076C67.3739 53.1936 67.107 53.2868 66.8473 53.3943C66.9555 55.1004 67.006 55.9463 67.1142 57.6524C67.5343 57.6356 67.9532 57.5973 68.3693 57.5377C68.8643 57.4716 69.349 57.3439 69.812 57.1578C70.243 56.9875 70.6282 56.72 70.9373 56.3764C71.0837 56.1799 71.1892 55.9562 71.2474 55.7187C71.3056 55.4811 71.3154 55.2343 71.2764 54.9929V54.9786Z" fill="url(#paint0_linear_132_2001)"/>
<path d="M95.9753 47.294C95.0135 55.2845 94.1382 63.2868 93.3496 71.3012C89.8078 71.3729 88.0404 71.4446 84.5203 71.6524C84.2606 63.3753 83.9985 55.0957 83.734 46.8137C88.6392 46.8926 91.0845 46.9858 95.9753 47.294Z" fill="url(#paint1_linear_132_2001)"/>
<path d="M122.398 71.1291C121.586 71.7016 120.691 72.1487 119.744 72.4553C118.699 72.8135 117.625 73.0821 116.534 73.2581C115.398 73.4478 114.251 73.5652 113.1 73.6094C111.999 73.6537 110.895 73.6322 109.796 73.5449C107.903 73.403 106.045 72.9601 104.292 72.233C102.696 71.5786 101.231 70.6464 99.9644 69.4803C98.75 68.3684 97.7693 67.0284 97.079 65.5377C96.3908 64.0405 96.0482 62.4093 96.0763 60.7635C96.0935 59.5 96.3002 58.246 96.6894 57.0431C97.0713 55.8565 97.6332 54.7349 98.3558 53.7169C99.0932 52.6885 99.9833 51.7773 100.996 51.0144C102.091 50.2043 103.305 49.566 104.595 49.1219C105.992 48.6391 107.448 48.3449 108.924 48.2474C110.588 48.1406 112.26 48.2369 113.901 48.5341C114.557 48.6488 115.257 48.7922 116 48.9714C116.743 49.1506 117.443 49.3441 118.164 49.5807C118.881 49.8061 119.584 50.0717 120.27 50.3764C120.908 50.6568 121.523 50.9851 122.11 51.3585C121.569 53.7814 121.302 54.9929 120.775 57.423C119.979 57.0473 119.151 56.7427 118.301 56.5126C117.453 56.2814 116.593 56.0948 115.726 55.9535C114.618 55.7636 113.49 55.725 112.372 55.8388C111.418 55.9532 110.494 56.2399 109.645 56.6846C108.877 57.0766 108.217 57.6472 107.719 58.3477C107.225 59.0764 106.948 59.9285 106.918 60.8065C106.881 61.3945 106.949 61.9844 107.12 62.5484C107.29 63.1188 107.572 63.65 107.95 64.1112C108.353 64.5929 108.842 64.9963 109.392 65.3011C110.04 65.6412 110.748 65.853 111.477 65.9248C112.041 65.9754 112.608 65.9754 113.172 65.9248C113.703 65.897 114.224 65.7706 114.709 65.552C114.795 65.0359 114.831 64.785 114.918 64.2689C112.848 63.9606 111.816 63.8173 109.739 63.552C109.984 61.5449 110.114 60.5341 110.359 58.5341C112.552 58.7635 114.74 59.0335 116.923 59.3441C119.087 59.6524 121.302 59.975 123.516 60.319C123.062 64.6488 122.838 66.8137 122.398 71.1291Z" fill="url(#paint2_linear_132_2001)"/>
<path d="M82.3995 77.2008C81.1876 85.9128 80.1128 94.6369 79.1751 103.373C75.049 104.09 73.0003 104.498 68.9175 105.423C67.4748 100.047 66.6813 97.3441 65.0944 91.9105C64.7626 97.2438 64.6255 99.932 64.4091 105.337C60.3335 106.398 58.3137 106.979 54.3102 108.204C51.2469 99.3011 48.0754 90.4361 44.7957 81.6094C48.727 80.4553 50.7035 79.932 54.6853 78.9642C56.5031 85.4158 57.376 88.6632 59.0783 95.0861C59.1505 88.3119 59.2226 84.9571 59.4462 78.2832C62.6274 77.8674 64.2215 77.6811 67.3811 77.3657C69.3143 83.7097 70.2664 86.8567 71.9905 93.1004C72.0337 86.6058 72.077 83.3728 72.2141 76.9355C76.3113 76.9929 78.3455 77.0359 82.3995 77.2008Z" fill="url(#paint3_linear_132_2001)"/>
<path d="M94.5759 76.6703C93.7391 84.7945 92.9865 92.9021 92.3181 100.993C89.2091 101.423 87.6582 101.667 84.578 102.212L83.6763 77.3011C88.0044 76.9427 90.2117 76.8137 94.5759 76.6703Z" fill="url(#paint4_linear_132_2001)"/>
<path d="M123.848 78.3549C122.367 85.4947 120.939 92.6416 119.563 99.7958C115.618 99.9535 113.648 100.082 109.739 100.434C108.058 95.6094 107.171 93.1578 105.266 88.1685C104.631 93.1864 104.321 95.7384 103.723 100.807C100.397 100.928 98.738 101.022 95.4271 101.272C95.7685 92.9284 96.1364 84.5843 96.5307 76.2402C100.635 76.1542 102.691 76.1613 106.81 76.2402C109.356 81.3155 110.554 83.8101 112.819 88.7062C113.36 84.2187 113.627 81.975 114.182 77.4947C118.049 77.7743 119.982 77.9391 123.848 78.3549Z" fill="url(#paint5_linear_132_2001)"/>
<path d="M135.613 79.423C133.738 85.6237 132.815 88.742 131.018 95.0574C128.191 94.742 126.777 94.6058 123.949 94.3836C124.671 87.7599 124.973 84.4338 125.623 77.7671C129.626 78.3477 131.632 78.6775 135.613 79.423ZM130.456 99.7528C130.374 100.195 130.186 100.61 129.907 100.964C129.622 101.335 129.276 101.655 128.883 101.91C128.465 102.174 128.01 102.377 127.534 102.513C127.032 102.648 126.51 102.701 125.991 102.67C125.493 102.645 125.005 102.531 124.548 102.333C124.13 102.15 123.75 101.89 123.43 101.566C123.125 101.261 122.893 100.891 122.752 100.484C122.602 100.066 122.56 99.6175 122.629 99.1793C122.695 98.7219 122.865 98.2855 123.127 97.9033C123.391 97.5085 123.732 97.1698 124.129 96.9069C124.549 96.6274 125.012 96.419 125.5 96.2904C126.02 96.1543 126.559 96.1082 127.094 96.1542C127.612 96.1978 128.118 96.3338 128.587 96.5556C129.013 96.7588 129.399 97.0355 129.727 97.3728C130.027 97.6919 130.256 98.0706 130.398 98.4839C130.525 98.8951 130.545 99.3318 130.456 99.7528Z" fill="url(#paint6_linear_132_2001)"/>
<path d="M24.4274 74.5489C27.6955 75.4246 30.3016 74.9144 31.9113 73.3842L34.7238 70.7314C36.296 69.1124 33.5596 69.6839 32.6678 66.3451C30.8991 59.645 23.9942 52.7334 17.3192 50.9449C14.0511 50.0692 14.8105 47.0064 13.2062 48.5818L10.2402 51.5788C8.70284 53.1984 8.2191 55.8535 9.08692 59.1509C10.8862 65.8678 17.7524 72.7603 24.4274 74.5489Z" fill="url(#paint7_linear_132_2001)"/>
<path d="M30.4476 53.2502C24.4749 47.2126 16.8089 45.1118 13.3251 48.5581C9.84135 52.0044 11.859 59.6927 17.8317 65.7303C23.8044 71.768 31.4703 73.8687 34.9541 70.4224C38.4379 66.9761 36.4202 59.2879 30.4476 53.2502Z" fill="url(#paint8_linear_132_2001)"/>
<path d="M28.8058 54.8741C24.3904 50.4106 18.7218 48.859 16.1446 51.4084C13.5675 53.9578 15.0578 59.6428 19.4732 64.1063C23.8887 68.5698 29.5573 70.1215 32.1344 67.5721C34.7115 65.0227 33.2213 59.3376 28.8058 54.8741Z" fill="url(#paint9_linear_132_2001)"/>
<path style="mix-blend-mode:multiply" d="M32.2045 62.4204C30.905 57.4661 25.7938 52.3574 20.859 51.0351C19.4161 50.5727 17.8584 50.6189 16.4455 51.1661C17.6682 50.1977 19.4993 49.9002 21.7298 50.4979C26.6319 51.8114 31.7431 56.9201 33.0753 61.8831C33.9694 65.0825 33.0272 67.4221 30.9726 68.3252C32.3764 67.2039 32.9347 65.1205 32.2045 62.4204Z" fill="url(#paint10_linear_132_2001)"/>
<g style="mix-blend-mode:multiply">
<g style="mix-blend-mode:multiply">
<path d="M9.17276 59.4191L9.087 59.1509L9.02953 58.9078L11.9927 55.9539L12.0534 56.2503L12.1196 56.4607L9.17276 59.4191Z" fill="#FDD65B"/>
</g>
<g style="mix-blend-mode:multiply">
<path d="M8.70822 55.2051L11.6883 52.2207C11.6314 52.4331 11.654 52.6756 11.6439 52.9094L8.6638 55.8938C8.667 55.6636 8.68183 55.4338 8.70822 55.2051Z" fill="#FDD65B"/>
</g>
<g style="mix-blend-mode:multiply">
<path d="M10.0896 61.8802L13.0424 58.9323L13.2506 59.3646L10.3059 62.3148L10.0896 61.8802Z" fill="#FDD65B"/>
</g>
<g style="mix-blend-mode:multiply">
<path d="M13.2199 66.7996L16.152 63.8636L16.4518 64.2154L13.5197 67.1514L13.2199 66.7996Z" fill="#FDD65B"/>
</g>
<g style="mix-blend-mode:multiply">
<path d="M11.5234 64.4711L14.4659 61.5292L14.728 61.9234L11.7855 64.8654L11.5234 64.4711Z" fill="#FDD65B"/>
</g>
<g style="mix-blend-mode:multiply">
<path d="M15.1501 68.9105L18.0822 65.9745L18.4174 66.292L15.4853 69.228L15.1501 68.9105Z" fill="#FDD65B"/>
</g>
<g style="mix-blend-mode:multiply">
<path d="M28.2499 74.9251L31.1341 72.0376C31.3847 72.0172 31.6294 71.9864 31.8681 71.9453L28.9943 74.8268C28.7644 74.8353 28.5028 74.8965 28.2499 74.9251Z" fill="#FDD65B"/>
</g>
<g style="mix-blend-mode:multiply">
<path d="M27.6658 71.7125L28.1887 71.8526L25.2801 74.7336C25.1085 74.6876 24.9369 74.6416 24.7572 74.5934L27.6658 71.7125Z" fill="#FDD65B"/>
</g>
<g style="mix-blend-mode:multiply">
<path d="M22.3859 73.8354C22.2306 73.7938 22.0672 73.75 21.9273 73.6512L24.8469 70.7294C25.0103 70.7732 25.1655 70.8148 25.3054 70.9136L22.3859 73.8354Z" fill="#FDD65B"/>
</g>
<g style="mix-blend-mode:multiply">
<path d="M22.3845 69.3954C22.5184 69.4838 22.6568 69.5559 22.7847 69.6339L19.8629 72.564C19.7268 72.4837 19.5885 72.4116 19.4546 72.3232L22.3845 69.3954Z" fill="#FDD65B"/>
</g>
<g style="mix-blend-mode:multiply">
<path d="M17.6031 71.0302C17.4796 70.9358 17.3538 70.8496 17.2324 70.747L20.1624 67.8192C20.2837 67.9218 20.4095 68.008 20.5249 68.1002L17.6031 71.0302Z" fill="#FDD65B"/>
</g>
</g>
<path style="mix-blend-mode:color-dodge" d="M9.73489 64.0532C12.6293 68.4803 17.0149 70.7413 19.5395 69.0972C22.0642 67.4531 21.7551 62.5278 18.8547 58.0903C15.9543 53.6528 11.5769 51.394 9.02778 53.0315C6.47862 54.669 6.83448 59.6157 9.73489 64.0532Z" fill="url(#paint11_radial_132_2001)"/>
<path style="mix-blend-mode:multiply" d="M9.08692 59.1509C8.2191 55.8535 8.70284 53.1984 10.2402 51.5788L10.6286 51.1749C9.31682 52.8025 8.96294 55.2997 9.78147 58.3562C11.5807 65.0732 18.4529 71.976 25.128 73.7646C28.3961 74.6403 31.0022 74.1301 32.6119 72.5999L31.9113 73.3842C30.3098 74.9166 27.6874 75.4224 24.4274 74.5489C17.7524 72.7603 10.8862 65.8678 9.08692 59.1509Z" fill="url(#paint12_linear_132_2001)"/>
<path style="mix-blend-mode:color-dodge" d="M11.6345 56.6372C10.7492 53.4052 11.2677 50.882 12.7374 49.253C11.7766 50.8783 11.5597 53.1582 12.2914 55.885C14.0662 62.5954 20.9324 69.4879 27.6074 71.2765C31.088 72.2091 33.8174 71.5656 35.3941 69.7989C33.9877 72.1717 30.9458 73.0992 26.975 72.0353C20.3 70.2467 13.4338 63.3542 11.6345 56.6372Z" fill="url(#paint13_radial_132_2001)"/>
<path style="mix-blend-mode:multiply" d="M21.2512 56.6308C21.2512 56.6308 21.2293 56.7125 21.1437 56.8034C21.097 56.9425 21.0589 57.0844 21.0298 57.2282C20.992 57.4177 20.9641 57.609 20.9463 57.8013C20.9299 58.0279 20.9364 58.2555 20.9657 58.4808L22.7223 58.9515L22.7124 58.5635C22.7124 58.1977 22.7343 57.8322 22.778 57.469C22.8066 57.1821 22.9103 56.9079 23.0786 56.6738C23.2278 56.4776 23.4481 56.348 23.692 56.3128C24.0366 56.2581 24.3892 56.2866 24.7206 56.3957C25.1904 56.5212 25.6363 56.7235 26.0401 56.9945C26.4261 57.2516 26.7733 57.5629 27.0709 57.9187C27.3698 58.2648 27.6265 58.6452 27.8356 59.0518C28.0578 59.446 28.2398 59.8615 28.379 60.292L29.8823 60.6948L30.1237 61.5914L28.5795 61.1777C28.6818 61.7301 28.7191 62.2926 28.6909 62.8538C28.6729 63.329 28.5626 63.7961 28.3661 64.2291L26.2729 62.7926C26.3324 62.7264 26.3795 62.65 26.4121 62.5672C26.4789 62.4049 26.5245 62.2346 26.5478 62.0606C26.5984 61.8301 26.6319 61.5961 26.6478 61.3606C26.6719 61.0663 26.6632 60.7702 26.6216 60.4779L24.9059 60.0182L24.8921 60.5924C24.8854 60.9262 24.8434 61.2584 24.7667 61.5834C24.7229 61.8193 24.6157 62.0388 24.4564 62.2183C24.3072 62.3726 24.1076 62.4683 23.8938 62.4879C23.6068 62.514 23.3174 62.484 23.0418 62.3997C22.5976 62.2822 22.1749 62.095 21.7893 61.8452C21.4001 61.6025 21.0424 61.3126 20.7246 60.9819C20.4038 60.6497 20.1235 60.2807 19.8895 59.8825C19.6482 59.4914 19.4515 59.0745 19.3031 58.6395L17.9959 58.2892L17.7545 57.3927L19.0617 57.7429C18.9643 57.257 18.947 56.7584 19.0107 56.2669C19.0617 55.8829 19.1484 55.5045 19.2697 55.1366L21.2512 56.6308ZM22.1002 60.1946C22.3126 60.2515 22.469 60.2234 22.5471 60.0954C22.6523 59.9174 22.7068 59.714 22.7047 59.5072L21.1115 59.0803C21.1685 59.3345 21.2892 59.5701 21.4621 59.765C21.635 59.9599 21.8546 60.1077 22.1002 60.1946ZM25.5279 58.775C25.3073 58.7159 25.1569 58.7544 25.0805 58.9091C24.9854 59.1064 24.9282 59.3198 24.9119 59.5382L26.4561 59.9519C26.2765 59.2821 25.961 58.891 25.5279 58.775Z" fill="url(#paint14_linear_132_2001)"/>
<path d="M21.648 56.0978C21.6001 56.1463 21.5659 56.2066 21.5486 56.2726C21.4973 56.4103 21.4592 56.5525 21.4348 56.6974C21.3958 56.8871 21.3706 57.0794 21.3595 57.2727C21.3399 57.4982 21.3437 57.7252 21.3706 57.95L23.1272 58.4206L23.1173 58.0327C23.1202 57.6674 23.1448 57.3027 23.1911 56.9403C23.222 56.654 23.3255 56.3804 23.4917 56.1452C23.6432 55.9517 23.8624 55.8227 24.1051 55.7842C24.4499 55.7347 24.8013 55.7631 25.1337 55.8671C25.6038 55.9918 26.0498 56.1942 26.4532 56.4659C26.8393 56.723 27.1864 57.0343 27.484 57.3901C27.7851 57.7345 28.042 58.1152 28.2488 58.5232C28.4674 58.9191 28.6493 59.3343 28.7921 59.7634L30.2873 60.164L30.5177 61.1015L28.9654 60.6855C29.0736 61.2345 29.1117 61.7949 29.0789 62.3535C29.0602 62.8314 28.9492 63.3012 28.752 63.737L26.6587 62.3004C26.7182 62.2342 26.7654 62.1579 26.7979 62.075C26.8641 61.9155 26.909 61.7479 26.9314 61.5766C26.9834 61.3435 27.0175 61.1068 27.0336 60.8685C27.0597 60.5742 27.0509 60.2779 27.0075 59.9858L25.2917 59.526L25.2801 60.0921C25.2756 60.4292 25.2356 60.7648 25.1607 61.0934C25.1101 61.3251 25.0012 61.54 24.8445 61.718C24.6981 61.8763 24.4969 61.9727 24.2819 61.9876C23.9948 62.0141 23.7054 61.9841 23.4298 61.8994C22.9828 61.7817 22.5572 61.5938 22.1691 61.3426C21.7823 61.1122 21.424 60.8369 21.1017 60.5225C20.7809 60.1903 20.5006 59.8212 20.2666 59.423C20.0419 59.0353 19.8583 58.6251 19.7189 58.1992L18.4116 57.8489L18.1812 56.9115L19.4884 57.2617C19.391 56.7758 19.3737 56.2772 19.4373 55.7857C19.5023 55.404 19.6027 55.0293 19.7373 54.6663L21.648 56.0978ZM22.497 59.6616C22.7176 59.7207 22.8658 59.6904 22.9499 59.5728C23.0543 59.3944 23.1087 59.1912 23.1075 58.9845L21.5061 58.5555C21.5646 58.8084 21.6861 59.0425 21.8593 59.2359C22.0326 59.4293 22.2519 59.5758 22.497 59.6616ZM25.9247 58.242C25.7041 58.1829 25.5537 58.2214 25.4772 58.3761C25.3822 58.5734 25.325 58.7868 25.3087 59.0052L26.8528 59.4189C26.6733 58.7491 26.3578 58.358 25.9247 58.242Z" fill="url(#paint15_linear_132_2001)"/>
<g style="mix-blend-mode:color-dodge">
<path style="mix-blend-mode:color-dodge" d="M21.648 56.0978C21.6001 56.1463 21.5659 56.2066 21.5486 56.2726C21.4973 56.4103 21.4592 56.5525 21.4348 56.6974C21.3958 56.8871 21.3706 57.0794 21.3595 57.2727C21.3399 57.4982 21.3437 57.7252 21.3706 57.95L23.1272 58.4206L23.1173 58.0327C23.1202 57.6674 23.1448 57.3027 23.1911 56.9403C23.222 56.654 23.3255 56.3804 23.4917 56.1452C23.6432 55.9517 23.8624 55.8227 24.1051 55.7842C24.4499 55.7347 24.8013 55.7631 25.1337 55.8671C25.6038 55.9918 26.0498 56.1942 26.4532 56.4659C26.8393 56.723 27.1864 57.0343 27.484 57.3901C27.7851 57.7345 28.042 58.1152 28.2488 58.5232C28.4674 58.9191 28.6493 59.3343 28.7921 59.7634L30.2873 60.164L30.5177 61.1015L28.9654 60.6855C29.0736 61.2345 29.1117 61.7949 29.0789 62.3535C29.0602 62.8314 28.9492 63.3012 28.752 63.737L26.6587 62.3004C26.7182 62.2342 26.7654 62.1579 26.7979 62.075C26.8641 61.9155 26.909 61.7479 26.9314 61.5766C26.9834 61.3435 27.0175 61.1068 27.0336 60.8685C27.0597 60.5742 27.0509 60.2779 27.0075 59.9858L25.2917 59.526L25.2801 60.0921C25.2756 60.4292 25.2356 60.7648 25.1607 61.0934C25.1101 61.3251 25.0012 61.54 24.8445 61.718C24.6981 61.8763 24.4969 61.9727 24.2819 61.9876C23.9948 62.0141 23.7054 61.9841 23.4298 61.8994C22.9828 61.7817 22.5572 61.5938 22.1691 61.3426C21.7823 61.1122 21.424 60.8369 21.1017 60.5225C20.7809 60.1903 20.5006 59.8212 20.2666 59.423C20.0419 59.0353 19.8583 58.6251 19.7189 58.1992L18.4116 57.8489L18.1812 56.9115L19.4884 57.2617C19.391 56.7758 19.3737 56.2772 19.4373 55.7857C19.5023 55.404 19.6027 55.0293 19.7373 54.6663L21.648 56.0978ZM22.497 59.6616C22.7176 59.7207 22.8658 59.6904 22.9499 59.5728C23.0543 59.3944 23.1087 59.1912 23.1075 58.9845L21.5061 58.5555C21.5646 58.8084 21.6861 59.0425 21.8593 59.2359C22.0326 59.4293 22.2519 59.5758 22.497 59.6616ZM25.9247 58.242C25.7041 58.1829 25.5537 58.2214 25.4772 58.3761C25.3822 58.5734 25.325 58.7868 25.3087 59.0052L26.8528 59.4189C26.6733 58.7491 26.3578 58.358 25.9247 58.242Z" fill="url(#paint16_radial_132_2001)"/>
</g>
<path d="M157.011 35.714C154.715 35.714 153.096 36.5062 152.31 37.792L150.932 40.025C150.186 41.3625 151.879 40.5072 153.05 42.5392C155.387 46.6206 161.127 49.9385 165.817 49.9385C168.113 49.9385 168.153 52.0797 168.928 50.7651L170.346 48.2796C171.069 46.9478 170.92 45.1224 169.772 43.1133C167.412 39.0262 161.701 35.714 157.011 35.714Z" fill="url(#paint17_linear_132_2001)"/>
<path d="M156.806 50.7332C161.781 53.642 167.176 53.6726 168.854 50.8015C170.532 47.9305 167.859 43.245 162.884 40.3362C157.908 37.4275 152.514 37.3969 150.835 40.268C149.157 43.139 151.83 47.8245 156.806 50.7332Z" fill="url(#paint18_linear_132_2001)"/>
<path d="M157.597 49.3803C161.275 51.5307 165.264 51.5522 166.505 49.4283C167.747 47.3044 165.771 43.8395 162.093 41.6891C158.414 39.5388 154.426 39.5173 153.184 41.6411C151.943 43.765 153.918 47.2299 157.597 49.3803Z" fill="url(#paint19_linear_132_2001)"/>
<path style="mix-blend-mode:multiply" d="M154.043 45.0305C155.765 48.0499 160.013 50.501 163.48 50.501C164.507 50.5507 165.52 50.2468 166.351 49.64C165.719 50.4895 164.571 51.0061 163.004 51.0061C159.56 51.0061 155.312 48.555 153.567 45.5356C152.419 43.5954 152.625 41.8963 153.814 40.9434C153.09 41.925 153.09 43.3887 154.043 45.0305Z" fill="url(#paint20_linear_132_2001)"/>
<g style="mix-blend-mode:multiply">
<g style="mix-blend-mode:multiply">
<path d="M169.668 42.9526L169.772 43.1134L169.852 43.2626L168.429 45.7195L168.337 45.5358L168.256 45.4095L169.668 42.9526Z" fill="#FDD65B"/>
</g>
<g style="mix-blend-mode:multiply">
<path d="M170.713 45.6332L169.284 48.113C169.284 47.9637 169.226 47.8088 169.192 47.6538L170.621 45.174C170.66 45.3254 170.69 45.4787 170.713 45.6332Z" fill="#FDD65B"/>
</g>
<g style="mix-blend-mode:multiply">
<path d="M168.635 41.5003L167.217 43.9514L167.005 43.7045L168.417 41.2534L168.635 41.5003Z" fill="#FDD65B"/>
</g>
<g style="mix-blend-mode:multiply">
<path d="M165.719 38.8253L164.313 41.2649L164.054 41.087L165.461 38.6473L165.719 38.8253Z" fill="#FDD65B"/>
</g>
<g style="mix-blend-mode:multiply">
<path d="M167.24 40.0537L165.828 42.4991L165.587 42.2867L166.999 39.8413L167.24 40.0537Z" fill="#FDD65B"/>
</g>
<g style="mix-blend-mode:multiply">
<path d="M164.083 37.7806L162.677 40.2202L162.401 40.071L163.807 37.6313L164.083 37.7806Z" fill="#FDD65B"/>
</g>
<g style="mix-blend-mode:multiply">
<path d="M154.439 36.1388L153.056 38.5383C152.895 38.5957 152.74 38.6588 152.591 38.7277L153.969 36.334C154.118 36.288 154.278 36.2019 154.439 36.1388Z" fill="#FDD65B"/>
</g>
<g style="mix-blend-mode:multiply">
<path d="M155.386 38.1421L155.019 38.1421L156.42 35.7427C156.54 35.7427 156.661 35.7427 156.787 35.7427L155.386 38.1421Z" fill="#FDD65B"/>
</g>
<g style="mix-blend-mode:multiply">
<path d="M158.475 35.8231C158.584 35.8231 158.699 35.8231 158.808 35.8633L157.407 38.2915C157.292 38.2915 157.183 38.2915 157.074 38.2513L158.475 35.8231Z" fill="#FDD65B"/>
</g>
<g style="mix-blend-mode:multiply">
<path d="M159.255 38.7334C159.152 38.6989 159.049 38.676 158.951 38.6473L160.352 36.2134C160.455 36.2421 160.558 36.265 160.662 36.2995L159.255 38.7334Z" fill="#FDD65B"/>
</g>
<g style="mix-blend-mode:multiply">
<path d="M162.103 36.8219C162.2 36.8621 162.298 36.8965 162.395 36.9424L160.989 39.3763C160.891 39.3304 160.794 39.296 160.702 39.2558L162.103 36.8219Z" fill="#FDD65B"/>
</g>
</g>
<path style="mix-blend-mode:color-dodge" d="M168.486 40.0135C165.811 37.6198 162.539 36.908 161.173 38.4292C159.807 39.9503 160.874 43.1247 163.555 45.5242C166.236 47.9237 169.502 48.6355 170.885 47.1143C172.269 45.5931 171.167 42.4129 168.486 40.0135Z" fill="url(#paint21_radial_132_2001)"/>
<path style="mix-blend-mode:multiply" d="M169.772 43.1133C170.92 45.1224 171.069 46.9478 170.346 48.2796L170.162 48.6125C170.736 47.3152 170.529 45.616 169.456 43.7562C167.097 39.6691 161.379 36.3512 156.69 36.3512C154.393 36.3512 152.775 37.1433 151.988 38.4292L152.31 37.792C153.09 36.5062 154.721 35.714 157.011 35.714C161.701 35.714 167.412 39.0262 169.772 43.1133Z" fill="url(#paint22_linear_132_2001)"/>
<path style="mix-blend-mode:color-dodge" d="M168.543 45.2085C169.691 47.1717 169.795 48.9167 169.117 50.2427C169.462 49.0086 169.203 47.4759 168.245 45.817C165.903 41.7298 160.191 38.4177 155.501 38.4177C153.056 38.4177 151.38 39.3189 150.656 40.754C151.162 38.9515 152.993 37.8092 155.783 37.8092C160.472 37.8092 166.184 41.1214 168.543 45.2085Z" fill="url(#paint23_radial_132_2001)"/>
<path style="mix-blend-mode:multiply" d="M162.24 46.9019C162.24 46.9019 162.24 46.8445 162.281 46.7698C162.287 46.6704 162.287 46.5707 162.281 46.4713C162.272 46.3405 162.257 46.2102 162.235 46.081C162.206 45.9296 162.161 45.7815 162.103 45.639L160.868 45.639L160.943 45.8916C161.007 46.1314 161.057 46.3748 161.092 46.6206C161.124 46.8137 161.104 47.0116 161.035 47.1946C160.972 47.3494 160.85 47.4731 160.696 47.539C160.48 47.6354 160.244 47.6787 160.007 47.6653C159.677 47.6656 159.35 47.6113 159.037 47.5046C158.739 47.4038 158.457 47.2608 158.199 47.0798C157.942 46.9054 157.707 46.7012 157.499 46.4713C157.284 46.252 157.092 46.0116 156.925 45.7538L155.869 45.7538L155.553 45.2085L156.638 45.2085C156.474 44.8643 156.35 44.5021 156.27 44.1293C156.199 43.8146 156.189 43.489 156.242 43.1707L157.866 43.7447C157.839 43.7985 157.821 43.8569 157.815 43.9169C157.799 44.035 157.799 44.1547 157.815 44.2728C157.822 44.4328 157.841 44.5921 157.872 44.7492C157.908 44.9464 157.966 45.1389 158.044 45.3233L159.25 45.3233L159.158 44.9444C159.104 44.7244 159.073 44.4993 159.066 44.2728C159.053 44.1105 159.085 43.9477 159.158 43.8021C159.229 43.6747 159.343 43.577 159.479 43.5266C159.663 43.459 159.858 43.4278 160.053 43.4347C160.365 43.4337 160.675 43.4822 160.972 43.5782C161.27 43.6689 161.555 43.7962 161.821 43.9571C162.09 44.1185 162.339 44.3112 162.562 44.5311C162.789 44.7451 162.991 44.9838 163.165 45.2429L164.083 45.2429L164.399 45.7882L163.48 45.7882C163.63 46.0897 163.728 46.4135 163.773 46.7469C163.807 47.0076 163.817 47.2708 163.802 47.5333L162.24 46.9019ZM161.058 44.7148C160.909 44.7148 160.811 44.7607 160.782 44.8583C160.745 44.9935 160.745 45.1364 160.782 45.2716L161.902 45.2716C161.82 45.115 161.699 44.9817 161.552 44.8843C161.404 44.787 161.234 44.7286 161.058 44.7148ZM159.06 46.2475C159.215 46.2475 159.307 46.1958 159.33 46.081C159.358 45.935 159.358 45.785 159.33 45.639L158.245 45.639C158.48 46.0466 158.756 46.2475 159.06 46.2475Z" fill="url(#paint24_linear_132_2001)"/>
<path d="M162.074 47.3209C162.097 47.2807 162.109 47.2352 162.108 47.1889C162.118 47.0896 162.118 46.9897 162.108 46.8904C162.101 46.7592 162.083 46.6288 162.057 46.5001C162.03 46.3488 161.988 46.2007 161.93 46.0581L160.696 46.0581L160.771 46.3107C160.833 46.5506 160.881 46.794 160.914 47.0397C160.944 47.2328 160.925 47.4304 160.857 47.6137C160.792 47.7672 160.671 47.8902 160.518 47.9581C160.301 48.0511 160.066 48.0942 159.829 48.0844C159.499 48.0853 159.171 48.0309 158.859 47.9237C158.561 47.8229 158.279 47.6799 158.021 47.4989C157.763 47.326 157.528 47.1216 157.321 46.8904C157.108 46.6693 156.916 46.4291 156.747 46.1729L155.696 46.1729L155.381 45.5989L156.471 45.5989C156.304 45.258 156.181 44.8973 156.104 44.5254C156.032 44.2088 156.022 43.8813 156.075 43.561L157.7 44.1351C157.672 44.1889 157.655 44.2472 157.648 44.3073C157.633 44.4235 157.633 44.5412 157.648 44.6574C157.655 44.8194 157.674 44.9806 157.706 45.1396C157.74 45.3371 157.798 45.5298 157.878 45.7137L159.083 45.7137L158.991 45.3405C158.935 45.1188 158.902 44.8918 158.894 44.6632C158.886 44.5024 158.92 44.3424 158.991 44.1982C159.059 44.0688 159.174 43.9702 159.313 43.9227C159.496 43.8549 159.691 43.8237 159.887 43.8308C160.201 43.8294 160.513 43.8779 160.811 43.9743C161.105 44.0574 161.388 44.175 161.655 44.3245C161.923 44.4859 162.172 44.6786 162.395 44.8985C162.611 45.1132 162.803 45.3499 162.969 45.6046L163.888 45.6046L164.204 46.1786L163.285 46.1786C163.434 46.4801 163.533 46.8039 163.578 47.1373C163.602 47.3988 163.602 47.6621 163.578 47.9237L162.074 47.3209ZM160.891 45.1339C160.736 45.1339 160.645 45.1798 160.61 45.2717C160.573 45.4069 160.573 45.5497 160.61 45.685L161.735 45.685C161.652 45.5294 161.532 45.3973 161.384 45.3009C161.237 45.2046 161.067 45.1471 160.891 45.1339ZM158.894 46.6666C159.049 46.6666 159.141 46.6149 159.164 46.5001C159.191 46.354 159.191 46.2041 159.164 46.0581L158.079 46.0581C158.314 46.4656 158.59 46.6666 158.894 46.6666Z" fill="url(#paint25_linear_132_2001)"/>
<g style="mix-blend-mode:color-dodge">
<path style="mix-blend-mode:color-dodge" d="M162.074 47.3209C162.097 47.2807 162.109 47.2352 162.108 47.1889C162.118 47.0896 162.118 46.9897 162.108 46.8904C162.101 46.7592 162.083 46.6288 162.057 46.5001C162.03 46.3488 161.988 46.2007 161.93 46.0581L160.696 46.0581L160.771 46.3107C160.833 46.5506 160.881 46.794 160.914 47.0397C160.944 47.2328 160.925 47.4304 160.857 47.6137C160.792 47.7672 160.671 47.8902 160.518 47.9581C160.301 48.0511 160.066 48.0942 159.829 48.0844C159.499 48.0853 159.171 48.0309 158.859 47.9237C158.561 47.8229 158.279 47.6799 158.021 47.4989C157.763 47.326 157.528 47.1216 157.321 46.8904C157.108 46.6693 156.916 46.4291 156.747 46.1729L155.696 46.1729L155.381 45.5989L156.471 45.5989C156.304 45.258 156.181 44.8973 156.104 44.5254C156.032 44.2088 156.022 43.8813 156.075 43.561L157.7 44.1351C157.672 44.1889 157.655 44.2472 157.648 44.3073C157.633 44.4235 157.633 44.5412 157.648 44.6574C157.655 44.8194 157.674 44.9806 157.706 45.1396C157.74 45.3371 157.798 45.5298 157.878 45.7137L159.083 45.7137L158.991 45.3405C158.935 45.1188 158.902 44.8918 158.894 44.6632C158.886 44.5024 158.92 44.3424 158.991 44.1982C159.059 44.0688 159.174 43.9702 159.313 43.9227C159.496 43.8549 159.691 43.8237 159.887 43.8308C160.201 43.8294 160.513 43.8779 160.811 43.9743C161.105 44.0574 161.388 44.175 161.655 44.3245C161.923 44.4859 162.172 44.6786 162.395 44.8985C162.611 45.1132 162.803 45.3499 162.969 45.6046L163.888 45.6046L164.204 46.1786L163.285 46.1786C163.434 46.4801 163.533 46.8039 163.578 47.1373C163.602 47.3988 163.602 47.6621 163.578 47.9237L162.074 47.3209ZM160.891 45.1339C160.736 45.1339 160.645 45.1798 160.61 45.2717C160.573 45.4069 160.573 45.5497 160.61 45.685L161.735 45.685C161.652 45.5294 161.532 45.3973 161.384 45.3009C161.237 45.2046 161.067 45.1471 160.891 45.1339ZM158.894 46.6666C159.049 46.6666 159.141 46.6149 159.164 46.5001C159.191 46.354 159.191 46.2041 159.164 46.0581L158.079 46.0581C158.314 46.4656 158.59 46.6666 158.894 46.6666Z" fill="url(#paint26_radial_132_2001)"/>
</g>
<path d="M166.549 108.852C167.425 105.584 166.914 102.978 165.384 101.368L162.731 98.5555C161.112 96.9833 161.684 99.7197 158.345 100.611C151.645 102.38 144.733 109.285 142.945 115.96C142.069 119.228 139.006 118.469 140.582 120.073L143.579 123.039C145.198 124.576 147.853 125.06 151.151 124.192C157.868 122.393 164.76 115.527 166.549 108.852Z" fill="url(#paint27_linear_132_2001)"/>
<path d="M145.25 102.832C139.213 108.804 137.112 116.47 140.558 119.954C144.004 123.438 151.693 121.42 157.73 115.448C163.768 109.475 165.869 101.809 162.422 98.3252C158.976 94.8414 151.288 96.8591 145.25 102.832Z" fill="url(#paint28_linear_132_2001)"/>
<path d="M146.874 104.473C142.411 108.889 140.859 114.558 143.408 117.135C145.958 119.712 151.643 118.222 156.106 113.806C160.57 109.391 162.121 103.722 159.572 101.145C157.023 98.5678 151.338 100.058 146.874 104.473Z" fill="url(#paint29_linear_132_2001)"/>
<path style="mix-blend-mode:multiply" d="M154.42 101.075C149.466 102.374 144.357 107.486 143.035 112.42C142.573 113.863 142.619 115.421 143.166 116.834C142.198 115.611 141.9 113.78 142.498 111.55C143.811 106.647 148.92 101.536 153.883 100.204C157.082 99.3099 159.422 100.252 160.325 102.307C159.204 100.903 157.12 100.345 154.42 101.075Z" fill="url(#paint30_linear_132_2001)"/>
<g style="mix-blend-mode:multiply">
<g style="mix-blend-mode:multiply">
<path d="M151.419 124.107L151.151 124.192L150.908 124.25L147.954 121.287L148.25 121.226L148.461 121.16L151.419 124.107Z" fill="#FDD65B"/>
</g>
<g style="mix-blend-mode:multiply">
<path d="M147.205 124.571L144.221 121.591C144.433 121.648 144.676 121.625 144.909 121.635L147.894 124.615C147.664 124.612 147.434 124.597 147.205 124.571Z" fill="#FDD65B"/>
</g>
<g style="mix-blend-mode:multiply">
<path d="M153.88 123.19L150.932 120.237L151.365 120.029L154.315 122.973L153.88 123.19Z" fill="#FDD65B"/>
</g>
<g style="mix-blend-mode:multiply">
<path d="M158.8 120.059L155.864 117.127L156.215 116.827L159.151 119.76L158.8 120.059Z" fill="#FDD65B"/>
</g>
<g style="mix-blend-mode:multiply">
<path d="M156.471 121.756L153.529 118.813L153.923 118.551L156.865 121.494L156.471 121.756Z" fill="#FDD65B"/>
</g>
<g style="mix-blend-mode:multiply">
<path d="M160.91 118.129L157.974 115.197L158.292 114.862L161.228 117.794L160.91 118.129Z" fill="#FDD65B"/>
</g>
<g style="mix-blend-mode:multiply">
<path d="M166.925 105.029L164.037 102.145C164.017 101.895 163.986 101.65 163.945 101.411L166.827 104.285C166.835 104.515 166.896 104.777 166.925 105.029Z" fill="#FDD65B"/>
</g>
<g style="mix-blend-mode:multiply">
<path d="M163.712 105.613L163.853 105.091L166.733 107.999C166.688 108.171 166.642 108.342 166.593 108.522L163.712 105.613Z" fill="#FDD65B"/>
</g>
<g style="mix-blend-mode:multiply">
<path d="M165.835 110.893C165.794 111.049 165.75 111.212 165.651 111.352L162.729 108.432C162.773 108.269 162.815 108.114 162.914 107.974L165.835 110.893Z" fill="#FDD65B"/>
</g>
<g style="mix-blend-mode:multiply">
<path d="M161.395 110.895C161.484 110.761 161.556 110.623 161.634 110.495L164.564 113.416C164.484 113.552 164.412 113.691 164.323 113.825L161.395 110.895Z" fill="#FDD65B"/>
</g>
<g style="mix-blend-mode:multiply">
<path d="M163.03 115.676C162.936 115.8 162.85 115.925 162.747 116.047L159.819 113.117C159.922 112.996 160.008 112.87 160.1 112.754L163.03 115.676Z" fill="#FDD65B"/>
</g>
</g>
<path style="mix-blend-mode:color-dodge" d="M156.053 123.544C160.48 120.65 162.741 116.264 161.097 113.74C159.453 111.215 154.528 111.524 150.09 114.425C145.653 117.325 143.394 121.702 145.032 124.252C146.669 126.801 151.616 126.445 156.053 123.544Z" fill="url(#paint31_radial_132_2001)"/>
<path style="mix-blend-mode:multiply" d="M151.151 124.192C147.853 125.06 145.198 124.576 143.579 123.039L143.175 122.651C144.802 123.962 147.3 124.316 150.356 123.498C157.073 121.699 163.976 114.826 165.765 108.151C166.64 104.883 166.13 102.277 164.6 100.667L165.384 101.368C166.917 102.969 167.422 105.592 166.549 108.852C164.76 115.527 157.868 122.393 151.151 124.192Z" fill="url(#paint32_linear_132_2001)"/>
<path style="mix-blend-mode:color-dodge" d="M148.637 121.645C145.405 122.53 142.882 122.012 141.253 120.542C142.878 121.503 145.158 121.72 147.885 120.988C154.595 119.213 161.488 112.347 163.276 105.672C164.209 102.191 163.566 99.4619 161.799 97.8852C164.172 99.2916 165.099 102.334 164.035 106.304C162.247 112.979 155.354 119.846 148.637 121.645Z" fill="url(#paint33_radial_132_2001)"/>
<path style="mix-blend-mode:multiply" d="M148.631 112.028C148.631 112.028 148.712 112.05 148.803 112.136C148.942 112.182 149.084 112.22 149.228 112.249C149.418 112.287 149.609 112.315 149.801 112.333C150.028 112.349 150.256 112.343 150.481 112.314L150.951 110.557L150.564 110.567C150.198 110.567 149.832 110.545 149.469 110.501C149.182 110.473 148.908 110.369 148.674 110.201C148.478 110.052 148.348 109.831 148.313 109.587C148.258 109.243 148.287 108.89 148.396 108.559C148.521 108.089 148.723 107.643 148.994 107.239C149.252 106.853 149.563 106.506 149.919 106.208C150.265 105.91 150.645 105.653 151.052 105.444C151.446 105.222 151.862 105.04 152.292 104.9L152.695 103.397L153.591 103.156L153.178 104.7C153.73 104.598 154.293 104.56 154.854 104.588C155.329 104.606 155.796 104.717 156.229 104.913L154.793 107.006C154.726 106.947 154.65 106.9 154.567 106.867C154.405 106.8 154.235 106.755 154.061 106.732C153.83 106.681 153.596 106.647 153.361 106.632C153.066 106.607 152.77 106.616 152.478 106.658L152.018 108.373L152.592 108.387C152.926 108.394 153.258 108.436 153.583 108.513C153.819 108.556 154.039 108.664 154.218 108.823C154.373 108.972 154.468 109.172 154.488 109.385C154.514 109.673 154.484 109.962 154.4 110.238C154.282 110.682 154.095 111.104 153.845 111.49C153.603 111.879 153.313 112.237 152.982 112.555C152.65 112.876 152.281 113.156 151.882 113.39C151.491 113.631 151.074 113.828 150.64 113.976L150.289 115.283L149.393 115.525L149.743 114.218C149.257 114.315 148.758 114.332 148.267 114.269C147.883 114.218 147.504 114.131 147.137 114.01L148.631 112.028ZM152.195 111.179C152.252 110.967 152.223 110.81 152.095 110.732C151.917 110.627 151.714 110.572 151.507 110.575L151.08 112.168C151.335 112.111 151.57 111.99 151.765 111.817C151.96 111.644 152.108 111.425 152.195 111.179ZM150.775 107.751C150.716 107.972 150.754 108.122 150.909 108.199C151.106 108.294 151.32 108.351 151.538 108.367L151.952 106.823C151.282 107.003 150.891 107.318 150.775 107.751Z" fill="url(#paint34_linear_132_2001)"/>
<path d="M148.098 111.631C148.146 111.679 148.207 111.713 148.273 111.731C148.41 111.782 148.553 111.82 148.697 111.845C148.887 111.884 149.079 111.909 149.273 111.92C149.498 111.939 149.725 111.936 149.95 111.909L150.421 110.152L150.033 110.162C149.667 110.159 149.303 110.134 148.94 110.088C148.654 110.057 148.38 109.954 148.145 109.788C147.952 109.636 147.823 109.417 147.784 109.174C147.735 108.829 147.763 108.478 147.867 108.146C147.992 107.675 148.194 107.229 148.466 106.826C148.723 106.44 149.034 106.093 149.39 105.795C149.735 105.494 150.115 105.237 150.523 105.031C150.919 104.812 151.334 104.63 151.763 104.487L152.164 102.992L153.101 102.762L152.686 104.314C153.234 104.206 153.795 104.168 154.353 104.2C154.831 104.219 155.301 104.33 155.737 104.527L154.3 106.621C154.234 106.561 154.158 106.514 154.075 106.481C153.915 106.415 153.748 106.37 153.577 106.348C153.344 106.296 153.107 106.262 152.868 106.246C152.574 106.22 152.278 106.228 151.986 106.272L151.526 107.988L152.092 107.999C152.429 108.004 152.765 108.044 153.093 108.119C153.325 108.169 153.54 108.278 153.718 108.435C153.876 108.581 153.973 108.782 153.988 108.997C154.014 109.284 153.984 109.574 153.899 109.849C153.782 110.297 153.594 110.722 153.343 111.11C153.112 111.497 152.837 111.855 152.522 112.178C152.19 112.498 151.821 112.779 151.423 113.013C151.035 113.237 150.625 113.421 150.199 113.56L149.849 114.868L148.911 115.098L149.262 113.791C148.776 113.888 148.277 113.906 147.786 113.842C147.404 113.777 147.029 113.677 146.666 113.542L148.098 111.631ZM151.662 110.782C151.721 110.562 151.69 110.413 151.573 110.329C151.394 110.225 151.191 110.171 150.985 110.172L150.555 111.773C150.808 111.715 151.043 111.593 151.236 111.42C151.429 111.247 151.576 111.027 151.662 110.782ZM150.242 107.355C150.183 107.575 150.221 107.726 150.376 107.802C150.573 107.897 150.787 107.954 151.005 107.971L151.419 106.426C150.749 106.606 150.358 106.922 150.242 107.355Z" fill="url(#paint35_linear_132_2001)"/>
<g style="mix-blend-mode:color-dodge">
<path style="mix-blend-mode:color-dodge" d="M148.098 111.631C148.146 111.679 148.207 111.713 148.273 111.731C148.41 111.782 148.553 111.82 148.697 111.845C148.887 111.884 149.079 111.909 149.273 111.92C149.498 111.939 149.725 111.936 149.95 111.909L150.421 110.152L150.033 110.162C149.667 110.159 149.303 110.134 148.94 110.088C148.654 110.057 148.38 109.954 148.145 109.788C147.952 109.636 147.823 109.417 147.784 109.174C147.735 108.829 147.763 108.478 147.867 108.146C147.992 107.675 148.194 107.229 148.466 106.826C148.723 106.44 149.034 106.093 149.39 105.795C149.735 105.494 150.115 105.237 150.523 105.031C150.919 104.812 151.334 104.63 151.763 104.487L152.164 102.992L153.101 102.762L152.686 104.314C153.234 104.206 153.795 104.168 154.353 104.2C154.831 104.219 155.301 104.33 155.737 104.527L154.3 106.621C154.234 106.561 154.158 106.514 154.075 106.481C153.915 106.415 153.748 106.37 153.577 106.348C153.344 106.296 153.107 106.262 152.868 106.246C152.574 106.22 152.278 106.228 151.986 106.272L151.526 107.988L152.092 107.999C152.429 108.004 152.765 108.044 153.093 108.119C153.325 108.169 153.54 108.278 153.718 108.435C153.876 108.581 153.973 108.782 153.988 108.997C154.014 109.284 153.984 109.574 153.899 109.849C153.782 110.297 153.594 110.722 153.343 111.11C153.112 111.497 152.837 111.855 152.522 112.178C152.19 112.498 151.821 112.779 151.423 113.013C151.035 113.237 150.625 113.421 150.199 113.56L149.849 114.868L148.911 115.098L149.262 113.791C148.776 113.888 148.277 113.906 147.786 113.842C147.404 113.777 147.029 113.677 146.666 113.542L148.098 111.631ZM151.662 110.782C151.721 110.562 151.69 110.413 151.573 110.329C151.394 110.225 151.191 110.171 150.985 110.172L150.555 111.773C150.808 111.715 151.043 111.593 151.236 111.42C151.429 111.247 151.576 111.027 151.662 110.782ZM150.242 107.355C150.183 107.575 150.221 107.726 150.376 107.802C150.573 107.897 150.787 107.954 151.005 107.971L151.419 106.426C150.749 106.606 150.358 106.922 150.242 107.355Z" fill="url(#paint36_radial_132_2001)"/>
</g>
<path d="M31.697 111.761C33.9758 112.042 35.6794 111.454 36.6174 110.274L38.2582 108.227C39.1626 106.991 37.3772 107.632 36.4639 105.472C34.645 101.135 29.3543 97.1393 24.6997 96.5649C22.4209 96.2837 22.6432 94.1537 21.7131 95.3634L20.0015 97.6566C19.1206 98.8898 19.0451 100.72 19.9385 102.854C21.7795 107.2 27.0424 111.186 31.697 111.761Z" fill="url(#paint37_linear_132_2001)"/>
<path d="M33.7401 96.8797C29.1581 93.3835 23.8082 92.6925 21.7908 95.3364C19.7735 97.9803 21.8525 102.958 26.4346 106.454C31.0167 109.95 36.3665 110.641 38.3839 107.997C40.4013 105.354 38.3222 100.376 33.7401 96.8797Z" fill="url(#paint38_linear_132_2001)"/>
<path d="M32.7894 98.1256C29.402 95.5409 25.4462 95.0311 23.9539 96.9869C22.4615 98.9427 23.9977 102.624 27.3851 105.208C30.7725 107.793 34.7283 108.303 36.2207 106.347C37.713 104.391 36.1768 100.71 32.7894 98.1256Z" fill="url(#paint39_linear_132_2001)"/>
<path style="mix-blend-mode:multiply" d="M35.7834 102.878C34.4441 99.6702 30.5284 96.7173 27.0873 96.2926C26.0741 96.1175 25.0315 96.2951 24.1333 96.7957C24.8641 96.0299 26.0668 95.6577 27.6221 95.8496C31.0403 96.2715 34.956 99.2244 36.3181 102.435C37.2199 104.501 36.8067 106.162 35.5107 106.962C36.3488 106.077 36.5281 104.624 35.7834 102.878Z" fill="url(#paint40_linear_132_2001)"/>
<g style="mix-blend-mode:multiply">
<g style="mix-blend-mode:multiply">
<path d="M20.0214 103.026L19.9385 102.854L19.877 102.696L21.5908 100.432L21.6595 100.626L21.7237 100.761L20.0214 103.026Z" fill="#FDD65B"/>
</g>
<g style="mix-blend-mode:multiply">
<path d="M19.3128 100.238L21.0351 97.952C21.0168 98.1002 21.0548 98.261 21.07 98.4191L19.3477 100.705C19.3283 100.55 19.3166 100.394 19.3128 100.238Z" fill="#FDD65B"/>
</g>
<g style="mix-blend-mode:multiply">
<path d="M20.869 104.595L22.5764 102.335L22.757 102.606L21.0553 104.866L20.869 104.595Z" fill="#FDD65B"/>
</g>
<g style="mix-blend-mode:multiply">
<path d="M23.4356 107.606L25.1301 105.357L25.3647 105.566L23.6701 107.815L23.4356 107.606Z" fill="#FDD65B"/>
</g>
<g style="mix-blend-mode:multiply">
<path d="M22.0763 106.201L23.7773 103.947L23.9906 104.187L22.2896 106.441L22.0763 106.201Z" fill="#FDD65B"/>
</g>
<g style="mix-blend-mode:multiply">
<path d="M24.9313 108.844L26.6259 106.595L26.8811 106.777L25.1865 109.026L24.9313 108.844Z" fill="#FDD65B"/>
</g>
<g style="mix-blend-mode:multiply">
<path d="M34.3015 111.654L35.9683 109.442C36.1349 109.405 36.2964 109.361 36.453 109.311L34.7925 111.518C34.6388 111.545 34.4687 111.611 34.3015 111.654Z" fill="#FDD65B"/>
</g>
<g style="mix-blend-mode:multiply">
<path d="M33.6067 109.55L33.9713 109.595L32.2873 111.805C32.1677 111.79 32.0481 111.775 31.9227 111.76L33.6067 109.55Z" fill="#FDD65B"/>
</g>
<g style="mix-blend-mode:multiply">
<path d="M30.2577 111.473C30.1494 111.46 30.0355 111.446 29.9322 111.393L31.6196 109.154C31.7336 109.168 31.8418 109.182 31.9452 109.235L30.2577 111.473Z" fill="#FDD65B"/>
</g>
<g style="mix-blend-mode:multiply">
<path d="M29.8393 108.489C29.9376 108.536 30.0373 108.572 30.1307 108.612L28.4425 110.856C28.3434 110.815 28.2437 110.779 28.1454 110.733L29.8393 108.489Z" fill="#FDD65B"/>
</g>
<g style="mix-blend-mode:multiply">
<path d="M26.7794 110.038C26.6875 109.986 26.5948 109.94 26.5036 109.882L28.1975 107.639C28.2887 107.696 28.3813 107.743 28.4676 107.794L26.7794 110.038Z" fill="#FDD65B"/>
</g>
</g>
<path style="mix-blend-mode:color-dodge" d="M20.835 106.088C23.1967 108.792 26.3569 109.899 27.8991 108.556C29.4413 107.214 28.7705 103.933 26.4038 101.223C24.0371 98.5132 20.8826 97.4068 19.3233 98.7471C17.764 100.087 18.4684 103.379 20.835 106.088Z" fill="url(#paint41_radial_132_2001)"/>
<path style="mix-blend-mode:multiply" d="M19.9385 102.854C19.0451 100.72 19.1206 98.8898 20.0015 97.6567L20.2246 97.3487C19.496 98.566 19.493 100.278 20.3306 102.255C22.1715 106.6 27.4395 110.593 32.094 111.168C34.3729 111.449 36.0765 110.861 37.0145 109.681L36.6174 110.274C35.6851 111.455 33.9701 112.041 31.697 111.761C27.0424 111.186 21.7795 107.2 19.9385 102.854Z" fill="url(#paint42_linear_132_2001)"/>
<path style="mix-blend-mode:color-dodge" d="M21.4144 100.925C20.5154 98.8363 20.6266 97.0918 21.4612 95.8587C20.9682 97.0414 21.0369 98.5941 21.7851 100.358C23.609 104.701 28.872 108.688 33.5265 109.262C35.9535 109.562 37.7274 108.873 38.621 107.537C37.8989 109.264 35.9416 110.173 33.1728 109.832C28.5183 109.257 23.2553 105.271 21.4144 100.925Z" fill="url(#paint43_radial_132_2001)"/>
<path style="mix-blend-mode:multiply" d="M27.8772 100.017C27.8772 100.017 27.8701 100.074 27.8211 100.143C27.8028 100.241 27.7906 100.34 27.7846 100.439C27.7769 100.57 27.7762 100.701 27.7823 100.832C27.7926 100.986 27.8184 101.138 27.8592 101.287L29.0841 101.438L29.041 101.178C29.0066 100.932 28.987 100.685 28.9821 100.436C28.9744 100.241 29.0183 100.047 29.1094 99.8737C29.1912 99.7279 29.3271 99.62 29.4877 99.5734C29.7142 99.5043 29.9539 99.4902 30.1868 99.5324C30.5144 99.5725 30.8331 99.6666 31.13 99.8108C31.4136 99.9473 31.6762 100.124 31.9097 100.335C32.1431 100.54 32.3514 100.771 32.5302 101.025C32.7166 101.269 32.878 101.531 33.0121 101.807L34.0603 101.936L34.3069 102.516L33.2301 102.383C33.3508 102.745 33.4288 103.12 33.4626 103.5C33.4952 103.821 33.465 104.145 33.3737 104.454L31.8317 103.686C31.8655 103.636 31.89 103.58 31.9041 103.521C31.9337 103.406 31.9484 103.287 31.9476 103.168C31.96 103.008 31.9605 102.848 31.949 102.688C31.9376 102.488 31.9038 102.29 31.8484 102.097L30.652 101.95L30.6968 102.337C30.7237 102.562 30.7266 102.789 30.7057 103.015C30.6984 103.177 30.647 103.335 30.5569 103.471C30.4711 103.588 30.3459 103.671 30.2041 103.705C30.0136 103.749 29.8163 103.756 29.6231 103.726C29.3135 103.688 29.0118 103.602 28.7292 103.471C28.4448 103.344 28.1771 103.183 27.9324 102.991C27.6855 102.797 27.4624 102.576 27.2678 102.33C27.0688 102.09 26.8974 101.828 26.7567 101.55L25.8452 101.437L25.5987 100.858L26.5102 100.97C26.399 100.653 26.3405 100.319 26.337 99.9828C26.3352 99.7199 26.3579 99.4574 26.4049 99.1988L27.8772 100.017ZM28.7829 102.332C28.931 102.35 29.0335 102.317 29.0739 102.223C29.1279 102.094 29.1454 101.952 29.1246 101.813L28.0136 101.676C28.0759 101.842 28.1791 101.989 28.3136 102.103C28.4482 102.218 28.6097 102.297 28.7829 102.332ZM30.9532 101.056C30.7994 101.037 30.7019 101.077 30.6651 101.188C30.6197 101.329 30.6014 101.478 30.6109 101.626L31.6877 101.759C31.504 101.326 31.2552 101.093 30.9532 101.056Z" fill="url(#paint44_linear_132_2001)"/>
<path d="M28.0937 99.6211C28.0661 99.6583 28.0487 99.702 28.0434 99.748C28.0218 99.8453 28.0096 99.9445 28.0068 100.044C27.9984 100.175 27.9996 100.307 28.0103 100.438C28.0184 100.591 28.0422 100.744 28.0815 100.892L29.3063 101.043L29.2632 100.783C29.2308 100.538 29.213 100.29 29.2101 100.042C29.2039 99.847 29.2477 99.6533 29.3373 99.4796C29.421 99.3353 29.5561 99.228 29.7157 99.1793C29.9427 99.1136 30.1816 99.0996 30.4148 99.1383C30.7425 99.1779 31.0612 99.272 31.3579 99.4166C31.6416 99.5532 31.9042 99.7297 32.1377 99.9409C32.3724 100.144 32.5808 100.376 32.7582 100.631C32.9424 100.876 33.1037 101.138 33.24 101.413L34.2826 101.542L34.5256 102.15L33.4432 102.016C33.5675 102.375 33.6459 102.748 33.6763 103.127C33.7087 103.45 33.6783 103.776 33.5867 104.087L32.0447 103.319C32.0785 103.269 32.103 103.213 32.1171 103.154C32.1465 103.041 32.161 102.924 32.16 102.807C32.1729 102.645 32.1736 102.483 32.1621 102.321C32.1519 102.121 32.1182 101.923 32.0614 101.73L30.8651 101.583L30.9105 101.964C30.9392 102.191 30.9438 102.42 30.9244 102.648C30.9122 102.809 30.8592 102.964 30.7706 103.098C30.6871 103.218 30.5609 103.302 30.4178 103.332C30.2274 103.377 30.03 103.384 29.8369 103.353C29.5253 103.316 29.2217 103.23 28.9372 103.097C28.6555 102.979 28.3888 102.827 28.1426 102.646C27.8958 102.453 27.6727 102.232 27.478 101.986C27.2905 101.746 27.1285 101.488 26.9948 101.215L26.0832 101.102L25.8402 100.494L26.7517 100.607C26.6405 100.289 26.582 99.9556 26.5786 99.6192C26.5863 99.3567 26.6186 99.0954 26.6749 98.8387L28.0937 99.6211ZM28.9995 101.937C29.1533 101.956 29.2501 101.921 29.2955 101.834C29.3489 101.705 29.3664 101.563 29.3461 101.424L28.2295 101.286C28.2926 101.451 28.3962 101.597 28.5309 101.71C28.6655 101.824 28.8267 101.902 28.9995 101.937ZM31.1698 100.66C31.0159 100.641 30.9185 100.681 30.8816 100.792C30.8363 100.934 30.8179 101.083 30.8275 101.231L31.9042 101.364C31.7206 100.93 31.4717 100.697 31.1698 100.66Z" fill="url(#paint45_linear_132_2001)"/>
<g style="mix-blend-mode:color-dodge">
<path style="mix-blend-mode:color-dodge" d="M28.0937 99.6211C28.0661 99.6583 28.0487 99.702 28.0434 99.748C28.0218 99.8453 28.0096 99.9445 28.0068 100.044C27.9984 100.175 27.9996 100.307 28.0103 100.438C28.0184 100.591 28.0422 100.744 28.0815 100.892L29.3063 101.043L29.2632 100.783C29.2308 100.538 29.213 100.29 29.2101 100.042C29.2039 99.847 29.2477 99.6533 29.3373 99.4796C29.421 99.3353 29.5561 99.228 29.7157 99.1793C29.9427 99.1136 30.1816 99.0996 30.4148 99.1383C30.7425 99.1779 31.0612 99.272 31.3579 99.4166C31.6416 99.5532 31.9042 99.7297 32.1377 99.9409C32.3724 100.144 32.5808 100.376 32.7582 100.631C32.9424 100.876 33.1037 101.138 33.24 101.413L34.2826 101.542L34.5256 102.15L33.4432 102.016C33.5675 102.375 33.6459 102.748 33.6763 103.127C33.7087 103.45 33.6783 103.776 33.5867 104.087L32.0447 103.319C32.0785 103.269 32.103 103.213 32.1171 103.154C32.1465 103.041 32.161 102.924 32.16 102.807C32.1729 102.645 32.1736 102.483 32.1621 102.321C32.1519 102.121 32.1182 101.923 32.0614 101.73L30.8651 101.583L30.9105 101.964C30.9392 102.191 30.9438 102.42 30.9244 102.648C30.9122 102.809 30.8592 102.964 30.7706 103.098C30.6871 103.218 30.5609 103.302 30.4178 103.332C30.2274 103.377 30.03 103.384 29.8369 103.353C29.5253 103.316 29.2217 103.23 28.9372 103.097C28.6555 102.979 28.3888 102.827 28.1426 102.646C27.8958 102.453 27.6727 102.232 27.478 101.986C27.2905 101.746 27.1285 101.488 26.9948 101.215L26.0832 101.102L25.8402 100.494L26.7517 100.607C26.6405 100.289 26.582 99.9556 26.5786 99.6192C26.5863 99.3567 26.6186 99.0954 26.6749 98.8387L28.0937 99.6211ZM28.9995 101.937C29.1533 101.956 29.2501 101.921 29.2955 101.834C29.3489 101.705 29.3664 101.563 29.3461 101.424L28.2295 101.286C28.2926 101.451 28.3962 101.597 28.5309 101.71C28.6655 101.824 28.8267 101.902 28.9995 101.937ZM31.1698 100.66C31.0159 100.641 30.9185 100.681 30.8816 100.792C30.8363 100.934 30.8179 101.083 30.8275 101.231L31.9042 101.364C31.7206 100.93 31.4717 100.697 31.1698 100.66Z" fill="url(#paint46_radial_132_2001)"/>
</g>
</g>
<defs>
<linearGradient id="paint0_linear_132_2001" x1="71.6947" y1="48.3191" x2="64.1366" y2="75.1826" gradientUnits="userSpaceOnUse">
<stop offset="0.01" stop-color="#FAAD3B"/>
<stop offset="0.22" stop-color="#FFDC00"/>
<stop offset="0.64" stop-color="#FFAD00"/>
<stop offset="1" stop-color="#E48237"/>
</linearGradient>
<linearGradient id="paint1_linear_132_2001" x1="1635.56" y1="2259.45" x2="1247.42" y2="2935.6" gradientUnits="userSpaceOnUse">
<stop offset="0.01" stop-color="#FBAE3C"/>
<stop offset="0.22" stop-color="#FFDC00"/>
<stop offset="0.64" stop-color="#FFAD00"/>
<stop offset="1" stop-color="#E38138"/>
</linearGradient>
<linearGradient id="paint2_linear_132_2001" x1="4406.88" y1="2386.69" x2="4188.32" y2="3220.27" gradientUnits="userSpaceOnUse">
<stop offset="0.01" stop-color="#FBAE3C"/>
<stop offset="0.22" stop-color="#FFDC00"/>
<stop offset="0.64" stop-color="#FFAD00"/>
<stop offset="1" stop-color="#E48237"/>
</linearGradient>
<linearGradient id="paint3_linear_132_2001" x1="3510.37" y1="4078.09" x2="3154.06" y2="5592.07" gradientUnits="userSpaceOnUse">
<stop offset="0.01" stop-color="#FAAD3B"/>
<stop offset="0.22" stop-color="#FFDC00"/>
<stop offset="0.64" stop-color="#FFAD00"/>
<stop offset="1" stop-color="#E28037"/>
</linearGradient>
<linearGradient id="paint4_linear_132_2001" x1="1458.87" y1="3411.08" x2="1021.12" y2="4071.13" gradientUnits="userSpaceOnUse">
<stop offset="0.01" stop-color="#FAB136"/>
<stop offset="0.22" stop-color="#FFDC00"/>
<stop offset="0.64" stop-color="#FFAD00"/>
<stop offset="1" stop-color="#E48237"/>
</linearGradient>
<linearGradient id="paint5_linear_132_2001" x1="4466.03" y1="3328.38" x2="4226.59" y2="4286.33" gradientUnits="userSpaceOnUse">
<stop offset="0.01" stop-color="#FDAB3D"/>
<stop offset="0.22" stop-color="#FFDC00"/>
<stop offset="0.64" stop-color="#FFAD00"/>
<stop offset="1" stop-color="#FF7F00"/>
<stop offset="1" stop-color="#E28037"/>
</linearGradient>
<linearGradient id="paint6_linear_132_2001" x1="2474.97" y1="3401.01" x2="2117.91" y2="4059.71" gradientUnits="userSpaceOnUse">
<stop offset="0.01" stop-color="#FAAD3B"/>
<stop offset="0.22" stop-color="#FFDC00"/>
<stop offset="0.64" stop-color="#FFAD00"/>
<stop offset="1" stop-color="#E68639"/>
</linearGradient>
<linearGradient id="paint7_linear_132_2001" x1="9.88034" y1="52.2354" x2="32.0317" y2="73.4252" gradientUnits="userSpaceOnUse">
<stop stop-color="#FFBB96"/>
<stop offset="0.23" stop-color="#FFFBC9"/>
<stop offset="0.54" stop-color="#F9B673"/>
<stop offset="0.64" stop-color="#F9B876"/>
<stop offset="0.72" stop-color="#FABE81"/>
<stop offset="0.81" stop-color="#FCC993"/>
<stop offset="0.86" stop-color="#FED2A3"/>
<stop offset="0.97" stop-color="#FFC28C"/>
</linearGradient>
<linearGradient id="paint8_linear_132_2001" x1="21.7441" y1="24.7738" x2="2.91302" y2="55.1396" gradientUnits="userSpaceOnUse">
<stop offset="0.04" stop-color="#FFBA78"/>
<stop offset="0.4" stop-color="#FFC987"/>
<stop offset="1" stop-color="#FEECA8"/>
</linearGradient>
<linearGradient id="paint9_linear_132_2001" x1="389.068" y1="-7.01809" x2="-61.9129" y2="-750.876" gradientUnits="userSpaceOnUse">
<stop offset="0.04" stop-color="#FFBA78"/>
<stop offset="0.4" stop-color="#FFC987"/>
<stop offset="1" stop-color="#FEECA8"/>
</linearGradient>
<linearGradient id="paint10_linear_132_2001" x1="24899.2" y1="-90325.6" x2="24547.9" y2="-90478.9" gradientUnits="userSpaceOnUse">
<stop stop-color="#FFBB96"/>
<stop offset="0.23" stop-color="#FFFBC9"/>
<stop offset="0.54" stop-color="#F9B673"/>
<stop offset="0.64" stop-color="#F9B876"/>
<stop offset="0.72" stop-color="#FABE81"/>
<stop offset="0.81" stop-color="#FCC993"/>
<stop offset="0.86" stop-color="#FED2A3"/>
<stop offset="0.97" stop-color="#FFC28C"/>
</linearGradient>
<radialGradient id="paint11_radial_132_2001" cx="0" cy="0" r="1" gradientUnits="userSpaceOnUse" gradientTransform="translate(21.7857 88.1158) rotate(146.379) scale(5.47303 9.55728)">
<stop stop-color="#F49587"/>
<stop offset="0.12" stop-color="#BD7368"/>
<stop offset="0.24" stop-color="#8B554D"/>
<stop offset="0.36" stop-color="#603B35"/>
<stop offset="0.48" stop-color="#3E2622"/>
<stop offset="0.61" stop-color="#231513"/>
<stop offset="0.74" stop-color="#0F0908"/>
<stop offset="0.86" stop-color="#040202"/>
<stop offset="1"/>
</radialGradient>
<linearGradient id="paint12_linear_132_2001" x1="31107.1" y1="-116037" x2="31920.9" y2="-116393" gradientUnits="userSpaceOnUse">
<stop stop-color="#FFBB96"/>
<stop offset="0.23" stop-color="#FFFBC9"/>
<stop offset="0.54" stop-color="#F9B673"/>
<stop offset="0.64" stop-color="#F9B876"/>
<stop offset="0.72" stop-color="#FABE81"/>
<stop offset="0.81" stop-color="#FCC993"/>
<stop offset="0.86" stop-color="#FED2A3"/>
<stop offset="0.97" stop-color="#FFC28C"/>
</linearGradient>
<radialGradient id="paint13_radial_132_2001" cx="0" cy="0" r="1" gradientUnits="userSpaceOnUse" gradientTransform="translate(18.0465 75.3835) rotate(105) scale(11.8049)">
<stop stop-color="white"/>
<stop offset="1"/>
</radialGradient>
<linearGradient id="paint14_linear_132_2001" x1="173.459" y1="34.2988" x2="286.768" y2="-64.4669" gradientUnits="userSpaceOnUse">
<stop stop-color="#FFBB96"/>
<stop offset="0.23" stop-color="#FFFBC9"/>
<stop offset="0.54" stop-color="#F9B673"/>
<stop offset="0.64" stop-color="#F9B876"/>
<stop offset="0.72" stop-color="#FABE81"/>
<stop offset="0.81" stop-color="#FCC993"/>
<stop offset="0.86" stop-color="#FED2A3"/>
<stop offset="0.97" stop-color="#FFC28C"/>
</linearGradient>
<linearGradient id="paint15_linear_132_2001" x1="295.441" y1="40.8395" x2="308.97" y2="-9.6507" gradientUnits="userSpaceOnUse">
<stop offset="0.04" stop-color="#FFBA78"/>
<stop offset="0.4" stop-color="#FFC987"/>
<stop offset="1" stop-color="#FEECA8"/>
</linearGradient>
<radialGradient id="paint16_radial_132_2001" cx="0" cy="0" r="1" gradientUnits="userSpaceOnUse" gradientTransform="translate(25854 -2726.06) rotate(-75) scale(81.7032 159.315)">
<stop stop-color="#F49587"/>
<stop offset="0.12" stop-color="#BD7368"/>
<stop offset="0.24" stop-color="#8B554D"/>
<stop offset="0.36" stop-color="#603B35"/>
<stop offset="0.48" stop-color="#3E2622"/>
<stop offset="0.61" stop-color="#231513"/>
<stop offset="0.74" stop-color="#0F0908"/>
<stop offset="0.86" stop-color="#040202"/>
<stop offset="1"/>
</radialGradient>
<linearGradient id="paint17_linear_132_2001" x1="170.466" y1="47.7859" x2="152.224" y2="37.7862" gradientUnits="userSpaceOnUse">
<stop stop-color="#FFBB96"/>
<stop offset="0.23" stop-color="#FFFBC9"/>
<stop offset="0.54" stop-color="#F9B673"/>
<stop offset="0.64" stop-color="#F9B876"/>
<stop offset="0.72" stop-color="#FABE81"/>
<stop offset="0.81" stop-color="#FCC993"/>
<stop offset="0.86" stop-color="#FED2A3"/>
<stop offset="0.97" stop-color="#FFC28C"/>
</linearGradient>
<linearGradient id="paint18_linear_132_2001" x1="167.513" y1="67.8716" x2="174.523" y2="44.6583" gradientUnits="userSpaceOnUse">
<stop offset="0.04" stop-color="#FFBA78"/>
<stop offset="0.4" stop-color="#FFC987"/>
<stop offset="1" stop-color="#FEECA8"/>
</linearGradient>
<linearGradient id="paint19_linear_132_2001" x1="-67.6935" y1="153.232" x2="358.594" y2="561.636" gradientUnits="userSpaceOnUse">
<stop offset="0.04" stop-color="#FFBA78"/>
<stop offset="0.4" stop-color="#FFC987"/>
<stop offset="1" stop-color="#FEECA8"/>
</linearGradient>
<linearGradient id="paint20_linear_132_2001" x1="-270.462" y1="63664.6" x2="-13.2671" y2="63703.4" gradientUnits="userSpaceOnUse">
<stop stop-color="#FFBB96"/>
<stop offset="0.23" stop-color="#FFFBC9"/>
<stop offset="0.54" stop-color="#F9B673"/>
<stop offset="0.64" stop-color="#F9B876"/>
<stop offset="0.72" stop-color="#FABE81"/>
<stop offset="0.81" stop-color="#FCC993"/>
<stop offset="0.86" stop-color="#FED2A3"/>
<stop offset="0.97" stop-color="#FFC28C"/>
</linearGradient>
<radialGradient id="paint21_radial_132_2001" cx="0" cy="0" r="1" gradientUnits="userSpaceOnUse" gradientTransform="translate(156.36 26.3565) rotate(-48.6215) scale(3.71428 6.48606)">
<stop stop-color="#F49587"/>
<stop offset="0.12" stop-color="#BD7368"/>
<stop offset="0.24" stop-color="#8B554D"/>
<stop offset="0.36" stop-color="#603B35"/>
<stop offset="0.48" stop-color="#3E2622"/>
<stop offset="0.61" stop-color="#231513"/>
<stop offset="0.74" stop-color="#0F0908"/>
<stop offset="0.86" stop-color="#040202"/>
<stop offset="1"/>
</radialGradient>
<linearGradient id="paint22_linear_132_2001" x1="176.241" y1="81609.6" x2="-294.636" y2="81986" gradientUnits="userSpaceOnUse">
<stop stop-color="#FFBB96"/>
<stop offset="0.23" stop-color="#FFFBC9"/>
<stop offset="0.54" stop-color="#F9B673"/>
<stop offset="0.64" stop-color="#F9B876"/>
<stop offset="0.72" stop-color="#FABE81"/>
<stop offset="0.81" stop-color="#FCC993"/>
<stop offset="0.86" stop-color="#FED2A3"/>
<stop offset="0.97" stop-color="#FFC28C"/>
</linearGradient>
<radialGradient id="paint23_radial_132_2001" cx="0" cy="0" r="1" gradientUnits="userSpaceOnUse" gradientTransform="translate(161.047 34.0461) rotate(-90) scale(8.01143)">
<stop stop-color="white"/>
<stop offset="1"/>
</radialGradient>
<linearGradient id="paint24_linear_132_2001" x1="66.3868" y1="88.276" x2="9.45775" y2="172.922" gradientUnits="userSpaceOnUse">
<stop stop-color="#FFBB96"/>
<stop offset="0.23" stop-color="#FFFBC9"/>
<stop offset="0.54" stop-color="#F9B673"/>
<stop offset="0.64" stop-color="#F9B876"/>
<stop offset="0.72" stop-color="#FABE81"/>
<stop offset="0.81" stop-color="#FCC993"/>
<stop offset="0.86" stop-color="#FED2A3"/>
<stop offset="0.97" stop-color="#FFC28C"/>
</linearGradient>
<linearGradient id="paint25_linear_132_2001" x1="-14.7245" y1="105.414" x2="-14.7245" y2="140.888" gradientUnits="userSpaceOnUse">
<stop offset="0.04" stop-color="#FFBA78"/>
<stop offset="0.4" stop-color="#FFC987"/>
<stop offset="1" stop-color="#FEECA8"/>
</linearGradient>
<radialGradient id="paint26_radial_132_2001" cx="0" cy="0" r="1" gradientUnits="userSpaceOnUse" gradientTransform="translate(-16283.1 6408.51) rotate(90) scale(55.448 108.119)">
<stop stop-color="#F49587"/>
<stop offset="0.12" stop-color="#BD7368"/>
<stop offset="0.24" stop-color="#8B554D"/>
<stop offset="0.36" stop-color="#603B35"/>
<stop offset="0.48" stop-color="#3E2622"/>
<stop offset="0.61" stop-color="#231513"/>
<stop offset="0.74" stop-color="#0F0908"/>
<stop offset="0.86" stop-color="#040202"/>
<stop offset="1"/>
</radialGradient>
<linearGradient id="paint27_linear_132_2001" x1="144.235" y1="123.399" x2="165.425" y2="101.248" gradientUnits="userSpaceOnUse">
<stop stop-color="#FFBB96"/>
<stop offset="0.23" stop-color="#FFFBC9"/>
<stop offset="0.54" stop-color="#F9B673"/>
<stop offset="0.64" stop-color="#F9B876"/>
<stop offset="0.72" stop-color="#FABE81"/>
<stop offset="0.81" stop-color="#FCC993"/>
<stop offset="0.86" stop-color="#FED2A3"/>
<stop offset="0.97" stop-color="#FFC28C"/>
</linearGradient>
<linearGradient id="paint28_linear_132_2001" x1="116.774" y1="111.535" x2="147.14" y2="130.366" gradientUnits="userSpaceOnUse">
<stop offset="0.04" stop-color="#FFBA78"/>
<stop offset="0.4" stop-color="#FFC987"/>
<stop offset="1" stop-color="#FEECA8"/>
</linearGradient>
<linearGradient id="paint29_linear_132_2001" x1="84.9819" y1="-255.789" x2="-658.876" y2="195.192" gradientUnits="userSpaceOnUse">
<stop offset="0.04" stop-color="#FFBA78"/>
<stop offset="0.4" stop-color="#FFC987"/>
<stop offset="1" stop-color="#FEECA8"/>
</linearGradient>
<linearGradient id="paint30_linear_132_2001" x1="-90233.6" y1="-24765.9" x2="-90386.9" y2="-24414.7" gradientUnits="userSpaceOnUse">
<stop stop-color="#FFBB96"/>
<stop offset="0.23" stop-color="#FFFBC9"/>
<stop offset="0.54" stop-color="#F9B673"/>
<stop offset="0.64" stop-color="#F9B876"/>
<stop offset="0.72" stop-color="#FABE81"/>
<stop offset="0.81" stop-color="#FCC993"/>
<stop offset="0.86" stop-color="#FED2A3"/>
<stop offset="0.97" stop-color="#FFC28C"/>
</linearGradient>
<radialGradient id="paint31_radial_132_2001" cx="0" cy="0" r="1" gradientUnits="userSpaceOnUse" gradientTransform="translate(180.116 111.494) rotate(56.3785) scale(5.47303 9.55728)">
<stop stop-color="#F49587"/>
<stop offset="0.12" stop-color="#BD7368"/>
<stop offset="0.24" stop-color="#8B554D"/>
<stop offset="0.36" stop-color="#603B35"/>
<stop offset="0.48" stop-color="#3E2622"/>
<stop offset="0.61" stop-color="#231513"/>
<stop offset="0.74" stop-color="#0F0908"/>
<stop offset="0.86" stop-color="#040202"/>
<stop offset="1"/>
</radialGradient>
<linearGradient id="paint32_linear_132_2001" x1="-115945" y1="-30973.9" x2="-116301" y2="-31787.6" gradientUnits="userSpaceOnUse">
<stop stop-color="#FFBB96"/>
<stop offset="0.23" stop-color="#FFFBC9"/>
<stop offset="0.54" stop-color="#F9B673"/>
<stop offset="0.64" stop-color="#F9B876"/>
<stop offset="0.72" stop-color="#FABE81"/>
<stop offset="0.81" stop-color="#FCC993"/>
<stop offset="0.86" stop-color="#FED2A3"/>
<stop offset="0.97" stop-color="#FFC28C"/>
</linearGradient>
<radialGradient id="paint33_radial_132_2001" cx="0" cy="0" r="1" gradientUnits="userSpaceOnUse" gradientTransform="translate(167.383 115.233) rotate(15) scale(11.8049)">
<stop stop-color="white"/>
<stop offset="1"/>
</radialGradient>
<linearGradient id="paint34_linear_132_2001" x1="126.299" y1="-40.1795" x2="27.5331" y2="-153.488" gradientUnits="userSpaceOnUse">
<stop stop-color="#FFBB96"/>
<stop offset="0.23" stop-color="#FFFBC9"/>
<stop offset="0.54" stop-color="#F9B673"/>
<stop offset="0.64" stop-color="#F9B876"/>
<stop offset="0.72" stop-color="#FABE81"/>
<stop offset="0.81" stop-color="#FCC993"/>
<stop offset="0.86" stop-color="#FED2A3"/>
<stop offset="0.97" stop-color="#FFC28C"/>
</linearGradient>
<linearGradient id="paint35_linear_132_2001" x1="132.84" y1="-162.161" x2="82.3493" y2="-175.69" gradientUnits="userSpaceOnUse">
<stop offset="0.04" stop-color="#FFBA78"/>
<stop offset="0.4" stop-color="#FFC987"/>
<stop offset="1" stop-color="#FEECA8"/>
</linearGradient>
<radialGradient id="paint36_radial_132_2001" cx="0" cy="0" r="1" gradientUnits="userSpaceOnUse" gradientTransform="translate(-2634.06 -25720.8) rotate(-165) scale(81.7033 159.315)">
<stop stop-color="#F49587"/>
<stop offset="0.12" stop-color="#BD7368"/>
<stop offset="0.24" stop-color="#8B554D"/>
<stop offset="0.36" stop-color="#603B35"/>
<stop offset="0.48" stop-color="#3E2622"/>
<stop offset="0.61" stop-color="#231513"/>
<stop offset="0.74" stop-color="#0F0908"/>
<stop offset="0.86" stop-color="#040202"/>
<stop offset="1"/>
</radialGradient>
<linearGradient id="paint37_linear_132_2001" x1="19.8214" y1="98.1318" x2="36.7022" y2="110.29" gradientUnits="userSpaceOnUse">
<stop stop-color="#FFBB96"/>
<stop offset="0.23" stop-color="#FFFBC9"/>
<stop offset="0.54" stop-color="#F9B673"/>
<stop offset="0.64" stop-color="#F9B876"/>
<stop offset="0.72" stop-color="#FABE81"/>
<stop offset="0.81" stop-color="#FCC993"/>
<stop offset="0.86" stop-color="#FED2A3"/>
<stop offset="0.97" stop-color="#FFC28C"/>
</linearGradient>
<linearGradient id="paint38_linear_132_2001" x1="25.2125" y1="78.5591" x2="15.4117" y2="100.739" gradientUnits="userSpaceOnUse">
<stop offset="0.04" stop-color="#FFBA78"/>
<stop offset="0.4" stop-color="#FFC987"/>
<stop offset="1" stop-color="#FEECA8"/>
</linearGradient>
<linearGradient id="paint39_linear_132_2001" x1="269.103" y1="22.648" x2="-103.957" y2="-434.891" gradientUnits="userSpaceOnUse">
<stop offset="0.04" stop-color="#FFBA78"/>
<stop offset="0.4" stop-color="#FFC987"/>
<stop offset="1" stop-color="#FEECA8"/>
</linearGradient>
<linearGradient id="paint40_linear_132_2001" x1="8248.74" y1="-62985.8" x2="7998.23" y2="-63055.8" gradientUnits="userSpaceOnUse">
<stop stop-color="#FFBB96"/>
<stop offset="0.23" stop-color="#FFFBC9"/>
<stop offset="0.54" stop-color="#F9B673"/>
<stop offset="0.64" stop-color="#F9B876"/>
<stop offset="0.72" stop-color="#FABE81"/>
<stop offset="0.81" stop-color="#FCC993"/>
<stop offset="0.86" stop-color="#FED2A3"/>
<stop offset="0.97" stop-color="#FFC28C"/>
</linearGradient>
<radialGradient id="paint41_radial_132_2001" cx="0" cy="0" r="1" gradientUnits="userSpaceOnUse" gradientTransform="translate(31.1973 121.128) rotate(138.413) scale(3.71428 6.48606)">
<stop stop-color="#F49587"/>
<stop offset="0.12" stop-color="#BD7368"/>
<stop offset="0.24" stop-color="#8B554D"/>
<stop offset="0.36" stop-color="#603B35"/>
<stop offset="0.48" stop-color="#3E2622"/>
<stop offset="0.61" stop-color="#231513"/>
<stop offset="0.74" stop-color="#0F0908"/>
<stop offset="0.86" stop-color="#040202"/>
<stop offset="1"/>
</radialGradient>
<linearGradient id="paint42_linear_132_2001" x1="10003.2" y1="-80850.4" x2="10516.6" y2="-81166.3" gradientUnits="userSpaceOnUse">
<stop stop-color="#FFBB96"/>
<stop offset="0.23" stop-color="#FFFBC9"/>
<stop offset="0.54" stop-color="#F9B673"/>
<stop offset="0.64" stop-color="#F9B876"/>
<stop offset="0.72" stop-color="#FABE81"/>
<stop offset="0.81" stop-color="#FCC993"/>
<stop offset="0.86" stop-color="#FED2A3"/>
<stop offset="0.97" stop-color="#FFC28C"/>
</linearGradient>
<radialGradient id="paint43_radial_132_2001" cx="0" cy="0" r="1" gradientUnits="userSpaceOnUse" gradientTransform="translate(27.4868 112.922) rotate(97.0348) scale(8.01143)">
<stop stop-color="white"/>
<stop offset="1"/>
</radialGradient>
<linearGradient id="paint44_linear_132_2001" x1="128.076" y1="70.6934" x2="194.944" y2="-6.34321" gradientUnits="userSpaceOnUse">
<stop stop-color="#FFBB96"/>
<stop offset="0.23" stop-color="#FFFBC9"/>
<stop offset="0.54" stop-color="#F9B673"/>
<stop offset="0.64" stop-color="#F9B876"/>
<stop offset="0.72" stop-color="#FABE81"/>
<stop offset="0.81" stop-color="#FCC993"/>
<stop offset="0.86" stop-color="#FED2A3"/>
<stop offset="0.97" stop-color="#FFC28C"/>
</linearGradient>
<linearGradient id="paint45_linear_132_2001" x1="210.676" y1="63.6181" x2="215.021" y2="28.4111" gradientUnits="userSpaceOnUse">
<stop offset="0.04" stop-color="#FFBA78"/>
<stop offset="0.4" stop-color="#FFC987"/>
<stop offset="1" stop-color="#FEECA8"/>
</linearGradient>
<radialGradient id="paint46_radial_132_2001" cx="0" cy="0" r="1" gradientUnits="userSpaceOnUse" gradientTransform="translate(17128.5 -4199.6) rotate(-82.9652) scale(55.448 108.119)">
<stop stop-color="#F49587"/>
<stop offset="0.12" stop-color="#BD7368"/>
<stop offset="0.24" stop-color="#8B554D"/>
<stop offset="0.36" stop-color="#603B35"/>
<stop offset="0.48" stop-color="#3E2622"/>
<stop offset="0.61" stop-color="#231513"/>
<stop offset="0.74" stop-color="#0F0908"/>
<stop offset="0.86" stop-color="#040202"/>
<stop offset="1"/>
</radialGradient>
<clipPath id="clip0_132_2001">
<rect width="170" height="170" fill="white" transform="translate(0 -15)"/>
</clipPath>
</defs>
</svg>
